<svg width="30" height="30" viewBox="0 0 30 30" fill="none" xmlns="http://www.w3.org/2000/svg">
<g clip-path="url(#clip0_108_34)">
<path d="M15.0297 11.527C16.8093 11.527 18.2444 10.0918 18.2444 8.31234C18.2444 6.53285 16.8206 5.09766 15.0297 5.09766C13.2501 5.09766 11.815 6.53285 11.815 8.31234C11.8264 10.1034 13.2615 11.527 15.0297 11.527ZM7.56694 20.8383H1.79194C-0.0794303 20.8383 -0.18279 17.9795 1.82639 17.9795H6.83205L9.70233 13.7544C10.5519 12.5948 11.5164 12.0437 12.8826 12.0437H17.1651C18.5314 12.0437 19.4957 12.5489 20.3453 13.7544L23.2271 17.9795H28.2673C30.288 17.9795 30.1616 20.8383 28.3362 20.8383H22.5612C22.1019 20.8383 21.5508 20.6775 21.2294 20.1839L19.0249 17.0381L19.0135 24.9142H11.1146L11.1031 17.0381L8.89866 20.1839C8.57721 20.666 8.02619 20.8383 7.56694 20.8383Z" fill="#758CA3"/>
<path d="M6.18166 12.7286V16.165H0.234398V10.2177H5.10213L4.25018 11.0673H1.08401V15.3154H5.33205V13.5757L6.18166 12.7286ZM7.03127 10.6867L6.43139 10.0851L3.21178 13.2945L2.21744 12.3002L1.61674 12.9009L3.21096 14.4952L7.03127 10.6867Z" fill="#758CA3"/>
<path d="M29.7656 10.8728L29.2348 13.1079C29.1379 13.5157 28.7775 13.8006 28.3583 13.8006H25.136L25.2628 14.329C25.3115 14.5317 25.4911 14.6734 25.6996 14.6734H28.893V15.1239H25.6996C25.2819 15.1239 24.9223 14.8403 24.8248 14.4342L23.8365 10.3164C23.7879 10.1136 23.6083 9.97195 23.3998 9.97195H22.5586V9.52148H23.3998C23.8173 9.52148 24.1771 9.80508 24.2746 10.2113L24.4334 10.8729H29.7656V10.8728ZM25.2232 16.0811C25.2232 16.4387 25.5131 16.7285 25.8707 16.7285C26.2282 16.7285 26.5181 16.4386 26.5181 16.0811C26.5181 15.7235 26.2282 15.4336 25.8707 15.4336C25.5131 15.4336 25.2232 15.7234 25.2232 16.0811ZM27.5881 16.0811C27.5881 16.4387 27.878 16.7285 28.2355 16.7285C28.5931 16.7285 28.883 16.4386 28.883 16.0811C28.883 15.7235 28.5931 15.4336 28.2355 15.4336C27.878 15.4336 27.5881 15.7234 27.5881 16.0811Z" fill="#758CA3"/>
</g>
<defs>
<clipPath id="clip0_108_34">
<rect width="30" height="30" fill="white"/>
</clipPath>
</defs>
</svg>
