<svg width="30" height="30" viewBox="0 0 30 30" fill="none" xmlns="http://www.w3.org/2000/svg">
<path d="M2.98828 10.272V19.872C2.98828 21.1451 3.494 22.366 4.39417 23.2661C5.29435 24.1664 6.51525 24.672 7.78828 24.672H22.1882C23.4613 24.672 24.6822 24.1664 25.5824 23.2661C26.4826 22.366 26.9882 21.1451 26.9882 19.872V10.272C26.9882 8.999 26.4826 7.7781 25.5824 6.87793C24.6822 5.97775 23.4613 5.47205 22.1882 5.47205H7.78828C6.51525 5.47205 5.29435 5.97775 4.39417 6.87793C3.494 7.7781 2.98828 8.999 2.98828 10.272Z" stroke="#909090" stroke-width="1.536" stroke-linecap="round" stroke-linejoin="round"/>
<path d="M7.78833 10.2721V19.8721" stroke="#909090" stroke-width="1.536" stroke-linecap="round" stroke-linejoin="round"/>
<path d="M11.3883 15.072V19.872" stroke="#909090" stroke-width="1.536" stroke-linecap="round" stroke-linejoin="round"/>
<path d="M11.3883 10.2721V11.4721" stroke="#909090" stroke-width="1.536" stroke-linecap="round" stroke-linejoin="round"/>
<path d="M18.5883 10.2721V19.8721" stroke="#909090" stroke-width="1.536" stroke-linecap="round" stroke-linejoin="round"/>
<path d="M15 19.8V19.872" stroke="#909090" stroke-width="1.536" stroke-linecap="round" stroke-linejoin="round"/>
<path d="M15 10.2721V16.2721" stroke="#909090" stroke-width="1.536" stroke-linecap="round" stroke-linejoin="round"/>
<path d="M22.1882 16.2721V19.8721" stroke="#909090" stroke-width="1.536" stroke-linecap="round" stroke-linejoin="round"/>
<path d="M22.1882 10.2721V12.6721" stroke="#909090" stroke-width="1.536" stroke-linecap="round" stroke-linejoin="round"/>
</svg>
