<svg width="30" height="30" viewBox="0 0 30 30" fill="none" xmlns="http://www.w3.org/2000/svg">
<g clip-path="url(#clip0_20_202)">
<path d="M11.1077 13.8387H6.29986C5.80293 13.8387 5.39986 13.4357 5.39986 12.9388V2.09976C5.39986 1.60282 5.80293 1.19976 6.29986 1.19976H23.6378C24.1347 1.19976 24.5378 1.60282 24.5378 2.09976V12.7887C24.5378 13.2857 24.1347 13.6888 23.6378 13.6888H20.8028V14.8888H23.6378C24.7974 14.8888 25.7378 13.9484 25.7378 12.7887V2.09976C25.7378 0.940098 24.7974 -0.000244141 23.6378 -0.000244141H6.29986C5.1402 -0.000244141 4.19986 0.940098 4.19986 2.09976V12.9388C4.19986 14.0984 5.1402 15.0388 6.29986 15.0388H11.1077V13.8387Z" fill="#758CA3" stroke="#758CA3" stroke-width="0.00064"/>
<path d="M16.1326 4.84946C16.1326 4.16593 15.5786 3.61196 14.8951 3.61196C14.2116 3.61196 13.6576 4.16593 13.6576 4.84946C13.6576 5.53298 14.2116 6.08696 14.8951 6.08696C15.5786 6.08696 16.1326 5.53298 16.1326 4.84946ZM17.3326 4.84946C17.3326 6.19574 16.2414 7.28696 14.8951 7.28696C13.5488 7.28696 12.4576 6.19574 12.4576 4.84946C12.4576 3.50318 13.5488 2.41196 14.8951 2.41196C16.2414 2.41196 17.3326 3.50318 17.3326 4.84946ZM7.99511 9.53696H21.9076C22.239 9.53696 22.5076 9.26833 22.5076 8.93696C22.5076 8.60558 22.239 8.33696 21.9076 8.33696H7.99511C7.66373 8.33696 7.39511 8.60558 7.39511 8.93696C7.39511 9.26833 7.66373 9.53696 7.99511 9.53696ZM7.99511 12.237H15.3976C15.729 12.237 15.9976 11.9683 15.9976 11.637C15.9976 11.3056 15.729 11.037 15.3976 11.037H7.99511C7.66373 11.037 7.39511 11.3056 7.39511 11.637C7.39511 11.9683 7.66373 12.237 7.99511 12.237ZM17.5115 15.0372C17.8428 15.0372 18.1115 14.7686 18.1115 14.4372C18.1115 14.1058 17.8428 13.8372 17.5115 13.8372H9.69556C9.36418 13.8372 9.09556 14.1058 9.09556 14.4372V17.5503C9.09552 17.8331 9.16215 18.112 9.29003 18.3643L11.0804 21.8947C11.1658 22.0629 11.2103 22.2489 11.2102 22.4375V29.3864C11.2102 29.7178 11.4789 29.9864 11.8102 29.9864C12.1416 29.9864 12.4102 29.7178 12.4102 29.3864V22.4375C12.4103 22.0602 12.3213 21.6882 12.1505 21.3517L10.3602 17.8216C10.3177 17.7375 10.2955 17.6445 10.2955 17.5502V15.0372H17.5114L17.5115 15.0372ZM18.7102 29.3864V22.9649C18.7102 22.7562 18.7538 22.5498 18.8382 22.3588C18.9225 22.1679 19.0458 21.9967 19.2002 21.8562L20.5615 20.6161C20.8085 20.3912 21.0058 20.1172 21.1408 19.8117C21.2758 19.5061 21.3455 19.1758 21.3454 18.8417V15.755C21.3454 15.4237 21.0768 15.155 20.7454 15.155C20.4141 15.155 20.1454 15.4237 20.1454 15.755V18.8417C20.1455 19.0087 20.1106 19.1739 20.0432 19.3267C19.9757 19.4794 19.877 19.6164 19.7535 19.7288L18.3923 20.9689C18.1144 21.2219 17.8924 21.5301 17.7405 21.8738C17.5886 22.2175 17.5102 22.5892 17.5102 22.9649V29.3864C17.5102 29.7178 17.7789 29.9864 18.1102 29.9864C18.4416 29.9864 18.7102 29.7178 18.7102 29.3864Z" fill="#758CA3" stroke="#758CA3" stroke-width="0.00064"/>
<path d="M18.3331 15.9714V12.4815C18.3331 11.9844 18.736 11.5815 19.2331 11.5815C19.7427 11.5815 20.1457 11.9844 20.1457 12.4815V16.5714C20.1457 16.9028 20.4143 17.1714 20.7457 17.1714C21.0771 17.1714 21.3457 16.9028 21.3457 16.5714V12.4815C21.3457 11.3216 20.4054 10.3815 19.2457 10.3815C18.0733 10.3815 17.1331 11.3216 17.1331 12.4815V15.9714C17.1331 16.3028 17.4017 16.5714 17.7331 16.5714C18.0645 16.5714 18.3331 16.3028 18.3331 15.9714Z" fill="#758CA3" stroke="#758CA3" stroke-width="0.00064"/>
</g>
<defs>
<clipPath id="clip0_20_202">
<rect width="30" height="30" fill="white"/>
</clipPath>
</defs>
</svg>
