<svg width="30" height="30" viewBox="0 0 30 30" fill="none" xmlns="http://www.w3.org/2000/svg">
<path d="M3.75001 11.25H26.25M21.25 16.2517L8.75001 16.25M12.9166 21.2506L8.75001 21.25M8.75001 3.75V6.25M21.25 3.75V6.25M7.75001 26.25H22.25C23.6501 26.25 24.3503 26.25 24.885 25.9775C25.3554 25.7379 25.7379 25.3554 25.9775 24.885C26.25 24.3503 26.25 23.6501 26.25 22.25V10.25C26.25 8.84986 26.25 8.1498 25.9775 7.61503C25.7379 7.14461 25.3554 6.76216 24.885 6.52249C24.3503 6.25 23.6501 6.25 22.25 6.25H7.75001C6.34989 6.25 5.64981 6.25 5.11504 6.52249C4.64463 6.76216 4.26218 7.14461 4.0225 7.61503C3.75001 8.1498 3.75001 8.84986 3.75001 10.25V22.25C3.75001 23.6501 3.75001 24.3503 4.0225 24.885C4.26218 25.3554 4.64463 25.7379 5.11504 25.9775C5.64981 26.25 6.34988 26.25 7.75001 26.25Z" stroke="#758CA3" stroke-width="0.896" stroke-linecap="round" stroke-linejoin="round"/>
</svg>
