<svg width="25" height="25" viewBox="0 0 25 25" fill="none" xmlns="http://www.w3.org/2000/svg">
<path d="M6.56455 5.20833H21.8773L19.794 12.5H7.68636M20.8356 16.6667H8.33562L6.25229 3.125H3.12729M9.37729 20.8333C9.37729 21.4086 8.91091 21.875 8.33562 21.875C7.76033 21.875 7.29396 21.4086 7.29396 20.8333C7.29396 20.258 7.76033 19.7917 8.33562 19.7917C8.91091 19.7917 9.37729 20.258 9.37729 20.8333ZM20.8356 20.8333C20.8356 21.4086 20.3693 21.875 19.794 21.875C19.2186 21.875 18.7523 21.4086 18.7523 20.8333C18.7523 20.258 19.2186 19.7917 19.794 19.7917C20.3693 19.7917 20.8356 20.258 20.8356 20.8333Z" stroke="#909090" stroke-width="1.216" stroke-linecap="round" stroke-linejoin="round"/>
</svg>
