<svg width="30" height="30" viewBox="0 0 30 30" fill="none" xmlns="http://www.w3.org/2000/svg">
<path d="M7.96873 1.46542C7.00194 1.46542 6.13475 1.66464 5.5494 1.95761C4.96932 2.25058 4.74666 2.5787 4.74666 2.81308C4.74666 3.0416 4.96932 3.37617 5.5494 3.66269C6.13475 3.95566 7.00194 4.16074 7.96873 4.16074C8.93553 4.16074 9.80272 3.95566 10.3828 3.66269C10.9687 3.37617 11.1914 3.0416 11.1914 2.81308C11.1914 2.5787 10.9687 2.25058 10.3828 1.95761C9.80272 1.66464 8.93553 1.46542 7.96873 1.46542ZM17.3437 3.34042C16.3769 3.34042 15.5097 3.53964 14.9297 3.83261C14.3437 4.12558 14.1211 4.4537 14.1211 4.68808C14.1211 4.9166 14.3437 5.25117 14.9297 5.53769C15.5097 5.83066 16.3769 6.03515 17.3437 6.03515C17.6133 6.03515 17.8711 6.01757 18.1172 5.98827C18.3691 5.66659 18.7265 5.38124 19.1426 5.1914C19.623 4.9746 20.1797 4.79882 20.5664 4.68808C20.5664 4.4537 20.3437 4.12558 19.7578 3.83261C19.1777 3.53964 18.3105 3.34042 17.3437 3.34042ZM4.74666 4.41796C4.72322 5.27695 5.65369 5.62734 6.24022 5.80077C7.28904 6.10546 8.64842 6.10546 9.69725 5.80077C10.4472 5.58632 11.1855 5.17265 11.1914 4.41796C10.248 5.04081 8.87108 5.20839 7.96873 5.21484C6.82615 5.11933 5.62615 5.00097 4.74666 4.41796ZM22.0312 5.64316C21.0644 5.64316 20.1972 5.84238 19.6172 6.14062C19.0312 6.42773 18.8086 6.76171 18.8086 6.99023C18.8086 7.2246 19.0312 7.55273 19.6172 7.8457C20.1972 8.13866 21.0644 8.33788 22.0312 8.33788C22.998 8.33788 23.8652 8.13866 24.4453 7.8457C25.0312 7.55273 25.2539 7.2246 25.2539 6.99023C25.2539 6.76171 25.0312 6.42773 24.4453 6.14062C23.8652 5.84238 22.998 5.64316 22.0312 5.64316ZM14.1211 6.29296V6.43359C14.291 6.49218 14.4551 6.56249 14.6074 6.63867C15.1347 6.90234 15.5918 7.27148 15.8262 7.73437C16.4238 7.88085 17.0976 7.93359 17.7539 7.89257V7.07812C17.6191 7.08398 17.4844 7.08984 17.3437 7.08984C16.2363 7.08984 15.2285 6.87304 14.4551 6.48632C14.3379 6.42773 14.2265 6.36327 14.1211 6.29296ZM4.74666 6.29882C4.72674 7.15429 5.65604 7.50585 6.24022 7.68163C6.63865 7.79296 7.08397 7.86913 7.541 7.89257C7.65819 7.58788 7.86912 7.31835 8.13865 7.08984C7.38865 7.10742 6.63279 7.01367 5.94725 6.82031C5.4908 6.68554 5.08651 6.51562 4.74666 6.29882ZM11.7187 7.08984C10.7519 7.08984 9.88475 7.29491 9.30467 7.58202C8.71873 7.87499 8.49608 8.20312 8.49608 8.43749C8.49608 8.67187 8.71873 8.99999 9.30467 9.29296C9.88475 9.58593 10.7519 9.78515 11.7187 9.78515C12.6855 9.78515 13.5527 9.58593 14.1328 9.29296C14.7187 8.99999 14.9414 8.67187 14.9414 8.43749C14.9414 8.20312 14.7187 7.87499 14.1328 7.58202C13.5527 7.29491 12.6855 7.08984 11.7187 7.08984ZM4.74666 8.17382C4.72674 9.02929 5.65604 9.38085 6.24022 9.55663C6.60936 9.6621 7.01951 9.73242 7.44139 9.76171V8.95312C6.92576 8.91796 6.42186 8.83007 5.94725 8.69531C5.4908 8.56054 5.08651 8.39062 4.74666 8.17382ZM18.8086 8.60156C18.7969 9.46288 19.7109 9.80859 20.3027 9.98437C21.3515 10.2891 22.7109 10.2891 23.7597 9.98437C24.5039 9.76757 25.248 9.35742 25.2539 8.60156C25.1484 8.66601 25.0371 8.73046 24.9199 8.78906C24.1465 9.17577 23.1387 9.39257 22.0312 9.39257C20.9238 9.39257 19.916 9.17577 19.1426 8.78906C19.0254 8.73046 18.914 8.66601 18.8086 8.60156ZM15.9961 8.84765V9.65038C16.5469 9.76171 17.1621 9.80273 17.7539 9.76757V8.95898C17.1621 8.98827 16.5644 8.95312 15.9961 8.84765ZM8.49608 10.043C8.46678 10.3945 8.62498 10.6816 8.81834 10.8516C9.06444 11.0625 9.46287 11.2793 9.99022 11.4316C11.039 11.7305 12.3984 11.7305 13.4472 11.4316C13.9746 11.2793 14.373 11.0625 14.6191 10.8516C14.9062 10.6113 14.9414 10.3769 14.9414 10.043C14.8359 10.1133 14.7246 10.1777 14.6074 10.2363C13.834 10.623 12.8262 10.8398 11.7187 10.8398C10.6113 10.8398 9.6035 10.623 8.83006 10.2363C8.71287 10.1777 8.60154 10.1133 8.49608 10.043ZM4.74666 10.0488C4.72674 10.9043 5.65604 11.2559 6.24022 11.4316C6.60936 11.5371 7.01951 11.6074 7.44139 11.6367V10.8281C6.92576 10.793 6.42186 10.7051 5.94725 10.5703C5.4908 10.4355 5.08651 10.2656 4.74666 10.0488ZM18.8086 10.4766C18.7969 11.3379 19.7109 11.6836 20.3027 11.8594C21.3515 12.1641 22.7109 12.1641 23.7597 11.8594C24.5039 11.6426 25.248 11.2324 25.2539 10.4766C24.914 10.6934 24.5097 10.8633 24.0527 10.998C22.7812 11.3672 21.2812 11.3672 20.0097 10.998C19.5527 10.8633 19.1484 10.6934 18.8086 10.4766ZM15.9961 10.7226V11.5254C16.5469 11.6367 17.1621 11.6777 17.7539 11.6426V10.834C17.1621 10.8633 16.5644 10.8281 15.9961 10.7226ZM4.74666 11.9238C4.72674 12.7793 5.65604 13.1309 6.24022 13.3066C6.60936 13.4121 7.01951 13.4824 7.44139 13.5117V12.7031C6.92576 12.668 6.42186 12.5801 5.94725 12.4453C5.4908 12.3105 5.08651 12.1406 4.74666 11.9238ZM8.49608 11.9238C8.46678 12.2754 8.62498 12.5566 8.81834 12.7266C9.06444 12.9375 9.46287 13.1543 9.99022 13.3066C11.039 13.6055 12.3984 13.6055 13.4472 13.3066C13.9746 13.1543 14.373 12.9375 14.6191 12.7266C14.9062 12.4863 14.9414 12.2578 14.9414 11.9238C14.6015 12.1406 14.1972 12.3105 13.7402 12.4453C12.4687 12.8086 10.9687 12.8086 9.69725 12.4453C9.24022 12.3105 8.83592 12.1406 8.49608 11.9238ZM18.8086 12.3516C18.7969 13.2129 19.7109 13.5586 20.3027 13.7344C21.3515 14.0391 22.7109 14.0391 23.7597 13.7344C24.5039 13.5176 25.248 13.1074 25.2539 12.3516C24.914 12.5684 24.5097 12.7383 24.0527 12.873C22.7812 13.2422 21.2812 13.2422 20.0097 12.873C19.5527 12.7383 19.1484 12.5684 18.8086 12.3516ZM15.9961 12.5976V13.4004C16.5469 13.5117 17.1621 13.5527 17.7539 13.5176V12.709C17.1621 12.7383 16.5644 12.7031 15.9961 12.5976ZM8.49608 13.7988V13.9336C8.666 13.9922 8.83006 14.0625 8.9824 14.1387C9.50975 14.4023 9.96678 14.7715 10.2012 15.2344C11.2148 15.4805 12.4687 15.4629 13.4472 15.1816C13.9746 15.0293 14.373 14.8125 14.6191 14.6016C14.9062 14.3613 14.9414 14.1328 14.9414 13.7988C14.6015 14.0156 14.1972 14.1855 13.7402 14.3203C12.4687 14.6836 10.9687 14.6836 9.69725 14.3203C9.24022 14.1855 8.83592 14.0156 8.49608 13.7988ZM18.8086 14.2266C18.7969 15.0879 19.7109 15.4336 20.3027 15.6094C21.3515 15.9141 22.7109 15.9141 23.7597 15.6094C24.5039 15.3926 25.248 14.9824 25.2539 14.2266C24.914 14.4434 24.5097 14.6133 24.0527 14.748C22.7812 15.1172 21.2812 15.1172 20.0097 14.748C19.5527 14.6133 19.1484 14.4434 18.8086 14.2266ZM15.9961 14.4726V15.2754C16.5469 15.3867 17.1621 15.4277 17.7539 15.3926V14.584C17.1621 14.6133 16.5644 14.5781 15.9961 14.4726ZM6.09373 14.5898C5.12752 14.5898 4.26033 14.7949 3.6744 15.082C3.09432 15.375 2.87166 15.7031 2.87166 15.9375C2.87166 16.1719 3.09432 16.5 3.6744 16.793C4.26033 17.0859 5.12752 17.2851 6.09373 17.2851C7.06053 17.2851 7.92772 17.0859 8.50779 16.793C9.09373 16.5 9.31639 16.1719 9.31639 15.9375C9.31639 15.7031 9.09373 15.375 8.50779 15.082C7.92772 14.7949 7.06053 14.5898 6.09373 14.5898ZM14.9414 15.6738C14.6015 15.8906 14.1972 16.0605 13.7402 16.1953C12.6855 16.4941 11.4785 16.5469 10.3711 16.3476V17.1504C11.3555 17.3555 12.5215 17.3203 13.4472 17.0566C14.1855 16.8398 14.9355 16.4238 14.9414 15.6738ZM18.8086 16.1016C18.791 16.9336 19.6699 17.291 20.25 17.4668C20.5781 17.2031 20.8769 17.0039 21.2285 16.8574C20.8066 16.8105 20.3965 16.7344 20.0097 16.623C19.5527 16.4883 19.1484 16.3184 18.8086 16.1016ZM25.2539 16.1016C25.0898 16.207 24.9082 16.3008 24.709 16.3887C24.8906 16.4062 25.0722 16.4297 25.2422 16.459C25.2656 16.3418 25.2539 16.2246 25.2539 16.1016ZM15.9961 16.3476V17.1445C16.6347 17.2676 17.168 17.2969 17.7539 17.2734V16.459C17.1621 16.4883 16.5644 16.4531 15.9961 16.3476ZM23.9062 17.4023C22.9394 17.4023 22.0722 17.6074 21.4922 17.8945C20.9062 18.1875 20.6836 18.5156 20.6836 18.75C20.6836 18.9844 20.9062 19.3125 21.4922 19.6055C22.0722 19.8984 22.9394 20.0976 23.9062 20.0976C24.873 20.0976 25.7402 19.8984 26.3203 19.6055C26.9062 19.3125 27.1289 18.9844 27.1289 18.75C27.1289 18.5156 26.9062 18.1875 26.3203 17.8945C25.7402 17.6074 24.873 17.4023 23.9062 17.4023ZM2.87166 17.543C2.85467 18.4101 3.76873 18.7559 4.3658 18.9316C5.41463 19.2305 6.77342 19.2305 7.82225 18.9316C8.56639 18.7148 9.31053 18.2988 9.31639 17.543C9.21092 17.6133 9.09959 17.6777 8.9824 17.7363C8.20897 18.123 7.20115 18.3398 6.09373 18.3398C4.94471 18.2461 3.75701 18.1289 2.87166 17.543ZM14.9414 17.5488C14.6015 17.7656 14.1972 17.9355 13.7402 18.0703C12.6855 18.3691 11.4785 18.4219 10.3711 18.2226V19.0254C11.3555 19.2305 12.5215 19.1953 13.4472 18.9316C14.1855 18.7148 14.9355 18.2988 14.9414 17.5488ZM18.8086 17.9766C18.7851 18.5801 19.2773 18.9199 19.6172 19.0957C19.6172 19.0957 19.623 19.1016 19.6289 19.1016V18.375C19.3242 18.2637 19.0488 18.1289 18.8086 17.9766ZM2.87166 19.4238C2.85174 20.2793 3.78104 20.6309 4.3658 20.8066C5.41463 21.1055 6.77342 21.1055 7.82225 20.8066C8.56053 20.5898 9.31053 20.1738 9.31639 19.4238C8.97654 19.6406 8.57225 19.8105 8.11522 19.9453C6.84373 20.3086 5.34432 20.3086 4.07283 19.9453C3.6158 19.8105 3.21151 19.6406 2.87166 19.4238ZM10.3711 20.0976V20.8945C10.6582 20.959 10.9687 21 11.291 21.0234C11.4082 20.7129 11.6191 20.4434 11.8887 20.2148C11.3789 20.2266 10.8633 20.1855 10.3711 20.0976ZM15.4687 20.2148C14.5019 20.2148 13.6347 20.4199 13.0547 20.707C12.4687 21 12.2461 21.3281 12.2461 21.5625C12.2461 21.7969 12.4687 22.125 13.0547 22.418C13.6347 22.7109 14.5019 22.9101 15.4687 22.9101C16.4355 22.9101 17.3027 22.7109 17.8828 22.418C18.4687 22.125 18.6914 21.7969 18.6914 21.5625C18.6914 21.3281 18.4687 21 17.8828 20.707C17.3027 20.4199 16.4355 20.2148 15.4687 20.2148ZM20.6836 20.3555C20.6777 21.2226 21.5742 21.5684 22.1777 21.7441C23.2265 22.043 24.5859 22.043 25.6347 21.7441C26.3789 21.5273 27.123 21.1113 27.1289 20.3555C26.2031 20.918 24.8027 21.1465 23.9062 21.1523C22.7578 21.0586 21.5683 20.9414 20.6836 20.3555ZM2.87166 21.2988C2.85174 22.1543 3.78104 22.5059 4.3658 22.6816C5.41463 22.9805 6.77342 22.9805 7.82225 22.6816C8.56053 22.4648 9.31053 22.0488 9.31639 21.2988C8.97654 21.5156 8.57225 21.6855 8.11522 21.8203C6.84373 22.1836 5.34432 22.1836 4.07283 21.8203C3.6158 21.6855 3.21151 21.5156 2.87166 21.2988ZM20.6836 22.2363C20.6719 23.0976 21.5859 23.4434 22.1777 23.6191C23.2265 23.918 24.5859 23.918 25.6347 23.6191C26.373 23.4023 27.123 22.9863 27.1289 22.2363C26.789 22.4531 26.3847 22.623 25.9277 22.7578C24.6562 23.1211 23.1562 23.1211 21.8847 22.7578C21.4277 22.623 21.0234 22.4531 20.6836 22.2363ZM12.2461 23.168C12.2168 23.5195 12.375 23.8066 12.5683 23.9766C12.8144 24.1875 13.2129 24.4043 13.7402 24.5566C14.789 24.8555 16.1484 24.8555 17.1972 24.5566C17.7246 24.4043 18.123 24.1875 18.3691 23.9766C18.6152 23.7656 18.6914 23.584 18.6914 23.4375V23.168C18.5859 23.2383 18.4746 23.3027 18.3574 23.3613C17.584 23.748 16.5762 23.9648 15.4687 23.9648C14.3613 23.9648 13.3535 23.748 12.5801 23.3613C12.4629 23.3027 12.3515 23.2383 12.2461 23.168ZM2.87166 23.1738C2.85174 24.0293 3.78104 24.3809 4.3658 24.5566C5.41463 24.8555 6.77342 24.8555 7.82225 24.5566C8.56053 24.3398 9.31053 23.9238 9.31639 23.1738C8.97654 23.3906 8.57225 23.5605 8.11522 23.6953C6.84373 24.0586 5.34432 24.0586 4.07283 23.6953C3.6158 23.5605 3.21151 23.3906 2.87166 23.1738ZM20.6836 24.1113C20.6719 24.9726 21.5859 25.3184 22.1777 25.4941C23.2265 25.793 24.5859 25.793 25.6347 25.4941C26.373 25.2773 27.123 24.8613 27.1289 24.1113C26.789 24.3281 26.3847 24.498 25.9277 24.6328C24.6562 24.9961 23.1562 24.9961 21.8847 24.6328C21.4277 24.498 21.0234 24.3281 20.6836 24.1113ZM2.87166 25.0488C2.85174 25.9043 3.78104 26.2559 4.3658 26.4316C5.41463 26.7305 6.77342 26.7305 7.82225 26.4316C8.56053 26.2148 9.31053 25.7988 9.31639 25.0488C8.97654 25.2656 8.57225 25.4355 8.11522 25.5703C6.84373 25.9336 5.34432 25.9336 4.07283 25.5703C3.6158 25.4355 3.21151 25.2656 2.87166 25.0488ZM12.2461 25.0488C12.2226 25.6523 12.7148 25.9922 13.0547 26.168C13.6347 26.4609 14.5019 26.6601 15.4687 26.6601C16.4355 26.6601 17.3027 26.4609 17.8828 26.168C18.4629 25.8047 18.6914 25.6641 18.6914 25.0488C18.3515 25.2656 17.9472 25.4355 17.4902 25.5703C16.2187 25.9336 14.7187 25.9336 13.4472 25.5703C12.9902 25.4355 12.5859 25.2656 12.2461 25.0488ZM20.6836 25.9863C20.6601 26.5898 21.1523 26.9297 21.4922 27.1055C22.0722 27.3984 22.9394 27.5976 23.9062 27.5976C24.873 27.5976 25.7402 27.3984 26.3203 27.1055C26.9004 26.7422 27.1289 26.6016 27.1289 25.9863C26.789 26.2031 26.3847 26.373 25.9277 26.5078C24.6562 26.8711 23.1562 26.8711 21.8847 26.5078C21.4277 26.373 21.0234 26.2031 20.6836 25.9863ZM2.87166 26.9238C2.84588 27.5215 3.33338 27.8672 3.6744 28.043C4.26033 28.3359 5.12752 28.5351 6.09373 28.5351C7.06053 28.5351 7.92772 28.3359 8.50779 28.043C9.08787 27.6797 9.31639 27.5391 9.31639 26.9238C8.97654 27.1406 8.57225 27.3105 8.11522 27.4453C6.84373 27.8086 5.34432 27.8086 4.07283 27.4453C3.6158 27.3105 3.21151 27.1406 2.87166 26.9238Z" fill="#758CA3" stroke="#758CA3" stroke-width="0.00064"/>
</svg>
