<svg width="34" height="36" viewBox="0 0 34 36" fill="none" xmlns="http://www.w3.org/2000/svg">
<g filter="url(#filter0_d_108_7)">
<path d="M15.4438 11.6375C15.5874 11.8288 15.7779 11.9798 15.9968 12.0761C16.2157 12.1724 16.4557 12.2108 16.6938 12.1875H17.4313C17.7628 12.1875 18.0807 12.0558 18.3152 11.8214C18.5496 11.587 18.6813 11.269 18.6813 10.9375C18.6813 10.606 18.5496 10.2881 18.3152 10.0536C18.0807 9.81922 17.7628 9.68753 17.4313 9.68753H16.6188C16.2872 9.68753 15.9693 9.55583 15.7349 9.32141C15.5005 9.08699 15.3688 8.76905 15.3688 8.43753C15.3688 8.10601 15.5005 7.78806 15.7349 7.55364C15.9693 7.31922 16.2872 7.18753 16.6188 7.18753H17.3563C17.5943 7.16425 17.8343 7.20261 18.0532 7.29894C18.2722 7.39526 18.4626 7.5463 18.6063 7.73753" stroke="#758CA3" stroke-width="1.33333" stroke-linecap="round" stroke-linejoin="round"/>
<path d="M17 7.1875V6.5625" stroke="#758CA3" stroke-width="1.33333" stroke-linecap="round" stroke-linejoin="round"/>
<path d="M17 12.8125V12.1875" stroke="#758CA3" stroke-width="1.33333" stroke-linecap="round" stroke-linejoin="round"/>
<path d="M27.9375 3.4375H6.06252C5.71734 3.4375 5.43752 3.71732 5.43752 4.0625V15.3125C5.43752 15.6577 5.71734 15.9375 6.06252 15.9375H27.9375C28.2827 15.9375 28.5625 15.6577 28.5625 15.3125V4.0625C28.5625 3.71732 28.2827 3.4375 27.9375 3.4375Z" stroke="#758CA3" stroke-width="1.33333" stroke-linecap="round" stroke-linejoin="round"/>
<path d="M7.43127 3.4375C7.43127 3.96628 7.22121 4.47339 6.84731 4.84729C6.47341 5.22119 5.96629 5.43125 5.43752 5.43125" stroke="#758CA3" stroke-width="1.33333" stroke-linecap="round" stroke-linejoin="round"/>
<path d="M28.5625 5.43125C28.0337 5.43125 27.5266 5.22119 27.1527 4.84729C26.7788 4.47339 26.5688 3.96628 26.5688 3.4375" stroke="#758CA3" stroke-width="1.33333" stroke-linecap="round" stroke-linejoin="round"/>
<path d="M7.43127 15.9375C7.43127 15.6757 7.3797 15.4164 7.2795 15.1745C7.17931 14.9326 7.03245 14.7128 6.84731 14.5277C6.66217 14.3425 6.44238 14.1957 6.20049 14.0955C5.9586 13.9953 5.69934 13.9437 5.43752 13.9437" stroke="#758CA3" stroke-width="1.33333" stroke-linecap="round" stroke-linejoin="round"/>
<path d="M28.5625 13.9437C28.3007 13.9437 28.0414 13.9953 27.7995 14.0955C27.5576 14.1957 27.3379 14.3425 27.1527 14.5277C26.9676 14.7128 26.8207 14.9326 26.7205 15.1745C26.6203 15.4164 26.5688 15.6757 26.5688 15.9375" stroke="#758CA3" stroke-width="1.33333" stroke-linecap="round" stroke-linejoin="round"/>
<path d="M23.25 10.9375C23.9404 10.9375 24.5 10.3779 24.5 9.6875C24.5 8.99714 23.9404 8.4375 23.25 8.4375C22.5597 8.4375 22 8.99714 22 9.6875C22 10.3779 22.5597 10.9375 23.25 10.9375Z" stroke="#758CA3" stroke-width="1.33333" stroke-linecap="round" stroke-linejoin="round"/>
<path d="M10.75 10.9375C11.4404 10.9375 12 10.3779 12 9.6875C12 8.99714 11.4404 8.4375 10.75 8.4375C10.0597 8.4375 9.50002 8.99714 9.50002 9.6875C9.50002 10.3779 10.0597 10.9375 10.75 10.9375Z" stroke="#758CA3" stroke-width="1.33333" stroke-linecap="round" stroke-linejoin="round"/>
<path d="M26.575 15.9375H7.42501C7.31911 15.9368 7.21476 15.9629 7.12174 16.0135C7.02872 16.0642 6.95009 16.1376 6.89324 16.227C6.83638 16.3163 6.80316 16.4186 6.79669 16.5243C6.79022 16.63 6.81072 16.7357 6.85626 16.8313L7.54376 18.275C7.59442 18.3814 7.6741 18.4712 7.77363 18.5343C7.87315 18.5973 7.98846 18.6309 8.10626 18.6313H25.8938C26.0116 18.6309 26.1269 18.5973 26.2264 18.5343C26.3259 18.4712 26.4056 18.3814 26.4563 18.275L27.1438 16.8313C27.1893 16.7357 27.2098 16.63 27.2033 16.5243C27.1969 16.4186 27.1636 16.3163 27.1068 16.227C27.0499 16.1376 26.9713 16.0642 26.8783 16.0135C26.7853 15.9629 26.6809 15.9368 26.575 15.9375Z" stroke="#758CA3" stroke-width="1.33333" stroke-linecap="round" stroke-linejoin="round"/>
<path d="M21.75 18.6312H12.2438V21.4687H21.75V18.6312Z" stroke="#758CA3" stroke-width="1.33333" stroke-linecap="round" stroke-linejoin="round"/>
<path d="M24.425 21.4687H9.57502C9.43309 21.4642 9.29386 21.5082 9.18025 21.5934C9.06665 21.6786 8.98545 21.7999 8.95002 21.9374L7.76877 26.5624H26.2313L25.0313 21.9374C24.9966 21.8031 24.9182 21.6841 24.8084 21.5993C24.6987 21.5144 24.5638 21.4685 24.425 21.4687Z" stroke="#758CA3" stroke-width="1.33333" stroke-linecap="round" stroke-linejoin="round"/>
</g>
<defs>
<filter id="filter0_d_108_7" x="-1.99998" y="0" width="38" height="38" filterUnits="userSpaceOnUse" color-interpolation-filters="sRGB">
<feFlood flood-opacity="0" result="BackgroundImageFix"/>
<feColorMatrix in="SourceAlpha" type="matrix" values="0 0 0 0 0 0 0 0 0 0 0 0 0 0 0 0 0 0 127 0" result="hardAlpha"/>
<feOffset dy="4"/>
<feGaussianBlur stdDeviation="2"/>
<feComposite in2="hardAlpha" operator="out"/>
<feColorMatrix type="matrix" values="0 0 0 0 0 0 0 0 0 0 0 0 0 0 0 0 0 0 0.25 0"/>
<feBlend mode="normal" in2="BackgroundImageFix" result="effect1_dropShadow_108_7"/>
<feBlend mode="normal" in="SourceGraphic" in2="effect1_dropShadow_108_7" result="shape"/>
</filter>
</defs>
</svg>
