<svg width="30" height="30" viewBox="0 0 30 30" fill="none" xmlns="http://www.w3.org/2000/svg">
<path d="M12.39 16.7388C14.4114 16.7388 16.05 14.9256 16.05 12.6888C16.05 10.4521 14.4114 8.63884 12.39 8.63884C10.3687 8.63884 8.73004 10.4521 8.73004 12.6888C8.73004 14.9256 10.3687 16.7388 12.39 16.7388Z" fill="black" stroke="black" stroke-width="0.00064"/>
<path d="M15.78 17.2188C14.85 18.0588 13.68 18.5688 12.39 18.5688C11.1 18.5688 9.90001 18.0588 9.00001 17.1888C7.35001 17.9388 5.70001 18.8988 5.70001 20.3988V21.0288C5.70001 21.7788 6.30001 22.3788 7.05001 22.3788H17.76C18.51 22.3788 19.11 21.7788 19.11 21.0288V20.3988C19.08 18.8988 17.46 17.9688 15.78 17.2188Z" fill="black" stroke="black" stroke-width="0.00064"/>
<path d="M20.4 14.2188C20.34 14.1888 20.31 14.1588 20.25 14.1288C20.13 14.0688 19.98 14.0688 19.86 14.1588C19.23 14.5488 18.48 14.7888 17.7 14.7888C17.61 14.7888 17.49 14.7888 17.4 14.7888C17.25 15.1788 17.1 15.5688 16.89 15.8988C17.01 15.9588 17.16 15.9888 17.31 16.0788C19.02 16.8288 20.22 17.7588 21.06 19.0188H22.5C23.16 19.0188 23.7 18.4788 23.7 17.8188V17.2488C23.7 15.7788 21.99 14.8788 20.4 14.2188Z" fill="black" stroke="black" stroke-width="0.00064"/>
<path d="M20.07 10.2588C20.07 8.78884 18.99 7.58884 17.7 7.58884C17.04 7.58884 16.47 7.88884 16.02 8.33884C17.07 9.41884 17.73 10.9488 17.73 12.6588C17.73 12.7488 17.73 12.8088 17.73 12.8988C19.02 12.8988 20.07 11.7288 20.07 10.2588Z" fill="black" stroke="black" stroke-width="0.00064"/>
</svg>
