<svg width="20" height="20" viewBox="0 0 20 20" fill="none" xmlns="http://www.w3.org/2000/svg">
<g clip-path="url(#clip0_17_126)">
<path fill-rule="evenodd" clip-rule="evenodd" d="M8.68707 11.0763C8.98824 12.8504 9.35413 14.7034 9.55648 15.0846C9.84353 15.6246 10.5153 15.834 11.0565 15.5469C11.5965 15.2599 11.8035 14.5858 11.5165 14.0458C11.3141 13.6646 9.98589 12.3222 8.68707 11.0763ZM8.2306 9.03045C8.87177 9.6234 12.0941 12.6222 12.5565 13.4952C13.1471 14.6081 12.7212 15.994 11.6071 16.5858C11.2671 16.7658 10.9012 16.8504 10.5412 16.8504C9.72118 16.8504 8.92707 16.4093 8.51648 15.6363C8.05413 14.7634 7.38 10.414 7.24942 9.55045C7.21295 9.3034 7.33531 9.05868 7.55531 8.9434C7.77766 8.82575 8.04589 8.85986 8.2306 9.03045ZM10.0007 2.93741C15.5148 2.93741 20.0007 7.42446 20.0007 12.9374C20.0007 13.7409 19.9078 14.5327 19.7231 15.2903L19.6148 15.7398H14.1525V14.5633H18.676C18.7748 14.0351 18.8242 13.4892 18.8242 12.9374C18.8242 8.07152 14.8654 4.11387 10.0007 4.11387C5.13483 4.11387 1.17718 8.07152 1.17718 12.9374C1.17718 13.4892 1.2266 14.0351 1.32424 14.5633H6.40189V15.7398H0.385421L0.277191 15.2903C0.0936394 14.5327 0.000701904 13.7409 0.000701904 12.9374C0.000701904 7.42446 4.4866 2.93741 10.0007 2.93741ZM15.6522 7.00705L16.484 7.83882L15.3099 9.01294L14.4781 8.18117L15.6522 7.00705ZM4.34824 7.00705L5.52236 8.18116L4.69059 9.01293L3.51649 7.8388L4.34825 7.00703L4.34824 7.00705ZM10.5885 4.90952V6.5707H9.412V4.90951L10.5885 4.90952Z" fill="#758CA3" stroke="#758CA3" stroke-width="0.008"/>
</g>
<defs>
<clipPath id="clip0_17_126">
<rect width="20" height="20" fill="white"/>
</clipPath>
</defs>
</svg>
