<svg width="20" height="20" viewBox="0 0 20 20" fill="none" xmlns="http://www.w3.org/2000/svg">
<g clip-path="url(#clip0_16_46)">
<mask id="mask0_16_46" style="mask-type:luminance" maskUnits="userSpaceOnUse" x="0" y="0" width="20" height="20">
<path d="M20 0H0V20H20V0Z" fill="white"/>
</mask>
<g mask="url(#mask0_16_46)">
<path fill-rule="evenodd" clip-rule="evenodd" d="M1.66667 0.833333C1.66667 0.373096 1.29357 0 0.833333 0C0.373096 0 0 0.373096 0 0.833333V19.1667C0 19.6269 0.373096 20 0.833333 20C1.29357 20 1.66667 19.6269 1.66667 19.1667V18.3333H18.3333V19.1667C18.3333 19.6269 18.7064 20 19.1667 20C19.6269 20 20 19.6269 20 19.1667V0.833333C20 0.373096 19.6269 0 19.1667 0C18.7064 0 18.3333 0.373096 18.3333 0.833333V6.66667H16.6667V2.5C16.6667 2.03977 16.2936 1.66667 15.8333 1.66667H9.16667C8.70642 1.66667 8.33333 2.03977 8.33333 2.5V3.33333H4.16667C3.70643 3.33333 3.33333 3.70643 3.33333 4.16667V6.66667H1.66667V0.833333ZM8.33333 5H5V6.66667H8.33333V5ZM1.66667 8.33333V16.6667H3.33333V10.8333C3.33333 10.3731 3.70643 10 4.16667 10H10.8333C11.2936 10 11.6667 10.3731 11.6667 10.8333V11.6667H15.8333C16.2936 11.6667 16.6667 12.0398 16.6667 12.5V16.6667H18.3333V8.33333H1.66667ZM15 6.66667V3.33333H10V6.66667H15ZM10 16.6667H5V11.6667H10V16.6667ZM11.6667 16.6667V13.3333H15V16.6667H11.6667Z" fill="#758CA3"/>
</g>
</g>
<defs>
<clipPath id="clip0_16_46">
<rect width="20" height="20" fill="white"/>
</clipPath>
</defs>
</svg>
