<svg width="30" height="30" viewBox="0 0 30 30" fill="none" xmlns="http://www.w3.org/2000/svg">
<g clip-path="url(#clip0_183_150)">
<path d="M18.2937 2.77124C18.2078 2.68507 18.1057 2.6167 17.9933 2.57005C17.8809 2.5234 17.7604 2.49939 17.6387 2.49939C17.517 2.49939 17.3965 2.5234 17.2841 2.57005C17.1717 2.6167 17.0696 2.68507 16.9837 2.77124L4.02122 15.7337C3.93516 15.8197 3.8669 15.9218 3.82035 16.0342C3.77381 16.1466 3.74989 16.2671 3.74997 16.3887V22.87C3.74996 22.9916 3.77391 23.1121 3.82045 23.2245C3.86699 23.3369 3.93521 23.439 4.02122 23.525L6.87872 26.3825C6.56997 27.1325 6.23747 27.4837 5.97622 27.4837C5.43997 27.4837 4.91872 26.7587 4.74872 26.4087L4.64122 26.1837L3.34497 26.8L3.45122 27.025C3.48747 27.1037 4.36122 28.9225 5.97622 28.9225C6.42208 28.8903 6.8491 28.7298 7.20576 28.4603C7.56241 28.1908 7.83347 27.8239 7.98622 27.4037C8.10862 27.4649 8.24318 27.4978 8.37997 27.5H14.8612C14.9829 27.5 15.1033 27.4761 15.2157 27.4295C15.3281 27.383 15.4302 27.3148 15.5162 27.2287L28.4787 14.2662C28.5649 14.1803 28.6333 14.0782 28.6799 13.9658C28.7266 13.8534 28.7506 13.7329 28.7506 13.6112C28.7506 13.4896 28.7266 13.3691 28.6799 13.2567C28.6333 13.1443 28.5649 13.0422 28.4787 12.9562L18.2937 2.77124ZM14.7275 26.25H8.51247L8.45872 26.1962C8.58772 25.7833 8.69537 25.364 8.78122 24.94C9.54193 25.0951 10.3331 24.9654 11.0044 24.5754C11.6757 24.1854 12.1804 23.5624 12.4224 22.8247C12.6644 22.087 12.627 21.2861 12.3172 20.5743C12.0075 19.8624 11.4469 19.2891 10.7422 18.9634C10.0374 18.6377 9.23757 18.5823 8.49465 18.8078C7.75173 19.0332 7.11752 19.5237 6.71256 20.1861C6.3076 20.8484 6.16012 21.6365 6.29814 22.4005C6.43617 23.1645 6.85009 23.8512 7.46122 24.33C7.43372 24.4287 7.39872 24.52 7.37872 24.6237C7.34997 24.7675 7.31872 24.8937 7.28872 25.0262L4.99997 22.7362V16.5237L17.6375 3.88249L27.3662 13.61L14.7275 26.25ZM7.49997 21.875C7.49997 21.5042 7.60994 21.1416 7.81597 20.8333C8.02199 20.525 8.31483 20.2846 8.65744 20.1427C9.00005 20.0008 9.37705 19.9637 9.74076 20.036C10.1045 20.1084 10.4386 20.2869 10.7008 20.5492C10.963 20.8114 11.1416 21.1455 11.2139 21.5092C11.2863 21.8729 11.2492 22.2499 11.1072 22.5925C10.9653 22.9351 10.725 23.228 10.4167 23.434C10.1083 23.64 9.74581 23.75 9.37497 23.75C9.34872 23.75 9.32497 23.7437 9.29747 23.7425C9.50813 23.435 9.76537 23.1621 10.06 22.9337L10.26 22.7912L9.44872 21.6087L9.24247 21.7525C8.74234 22.1279 8.31671 22.5934 7.98747 23.125C7.67522 22.7834 7.50142 22.3378 7.49997 21.875ZM10.6775 14.635L18.08 7.23249L18.9637 8.11624L11.5612 15.52L10.6775 14.635ZM13.2037 17.1625L20.6062 9.75999L21.49 10.6437L14.0875 18.0462L13.2037 17.1625ZM15.73 19.6887L23.1337 12.2862L24.0175 13.17L16.615 20.5725L15.73 19.6887Z" fill="#919191" stroke="#919191" stroke-width="0.00064"/>
<path d="M0 0H30V30H0V0Z" stroke="#919191" stroke-width="0.00064"/>
</g>
<defs>
<clipPath id="clip0_183_150">
<rect width="30" height="30" fill="white"/>
</clipPath>
</defs>
</svg>
