
<svg width="20" height="20" viewBox="0 0 20 20" fill="none" xmlns="http://www.w3.org/2000/svg">
<path d="M6.66667 5.00057L17.5 5.00117M6.66667 10.0006L17.5 10.0013M6.66667 15.0006L17.5 15.0013M2.91667 5.00001H2.925M2.91667 10H2.925M2.91667 15H2.925M3.33333 5.00001C3.33333 5.23013 3.14678 5.41668 2.91667 5.41668C2.68655 5.41668 2.5 5.23013 2.5 5.00001C2.5 4.76989 2.68655 4.58334 2.91667 4.58334C3.14678 4.58334 3.33333 4.76989 3.33333 5.00001ZM3.33333 10C3.33333 10.2301 3.14678 10.4167 2.91667 10.4167C2.68655 10.4167 2.5 10.2301 2.5 10C2.5 9.76993 2.68655 9.58334 2.91667 9.58334C3.14678 9.58334 3.33333 9.76993 3.33333 10ZM3.33333 15C3.33333 15.2301 3.14678 15.4167 2.91667 15.4167C2.68655 15.4167 2.5 15.2301 2.5 15C2.5 14.7699 2.68655 14.5833 2.91667 14.5833C3.14678 14.5833 3.33333 14.7699 3.33333 15Z" stroke="black" stroke-width="0.64" stroke-linecap="round" stroke-linejoin="round"/>
</svg>
