<svg width="20" height="20" viewBox="0 0 20 20" fill="none" xmlns="http://www.w3.org/2000/svg">
<path d="M10.0023 12.5L12.5023 9.99999M12.5023 9.99999L10.0023 7.49999M12.5023 9.99999H3.33563M7.5023 6.04048V6.00016C7.5023 5.06673 7.5023 4.59967 7.68396 4.24316C7.84374 3.92955 8.09852 3.67477 8.41213 3.51498C8.76863 3.33332 9.23572 3.33332 10.1691 3.33332H14.0025C14.9359 3.33332 15.402 3.33332 15.7585 3.51498C16.072 3.67477 16.3277 3.92955 16.4875 4.24316C16.669 4.59932 16.669 5.06582 16.669 5.99742V14.003C16.669 14.9346 16.669 15.4004 16.4875 15.7566C16.3277 16.0702 16.072 16.3254 15.7585 16.4852C15.4023 16.6667 14.9365 16.6667 14.0049 16.6667H10.1664C9.2348 16.6667 8.7683 16.6667 8.41213 16.4852C8.09852 16.3254 7.84374 16.0699 7.68396 15.7563C7.5023 15.3998 7.5023 14.9334 7.5023 14V13.9583" stroke="black" stroke-width="1.6" stroke-linecap="round" stroke-linejoin="round"/>
</svg>
