<svg width="30" height="30" viewBox="0 0 30 30" fill="none" xmlns="http://www.w3.org/2000/svg">
<path d="M27.1875 1.875H2.8125C2.56386 1.875 2.3254 1.97377 2.14959 2.14959C1.97377 2.3254 1.875 2.56386 1.875 2.8125V19.3594C1.875 19.9437 2.10711 20.5041 2.52028 20.9172C2.93345 21.3304 3.49382 21.5625 4.07812 21.5625H12.1875V26.25H6.87187C6.62323 26.25 6.38478 26.3488 6.20896 26.5246C6.03315 26.7004 5.93437 26.9389 5.93437 27.1875C5.93437 27.4361 6.03315 27.6746 6.20896 27.8504C6.38478 28.0262 6.62323 28.125 6.87187 28.125H23.1281C23.3768 28.125 23.6152 28.0262 23.791 27.8504C23.9669 27.6746 24.0656 27.4361 24.0656 27.1875C24.0656 26.9389 23.9669 26.7004 23.791 26.5246C23.6152 26.3488 23.3768 26.25 23.1281 26.25H17.8125V21.5625H25.9219C26.5062 21.5625 27.0666 21.3304 27.4797 20.9172C27.8929 20.5041 28.125 19.9437 28.125 19.3594V2.8125C28.125 2.56386 28.0262 2.3254 27.8504 2.14959C27.6746 1.97377 27.4361 1.875 27.1875 1.875ZM26.25 3.75V15.2156C25.8976 15.0766 25.5226 15.0035 25.1437 15H4.85625C4.47741 15.0035 4.10244 15.0766 3.75 15.2156V3.75H26.25ZM15.9375 26.25H14.0625V21.5625H15.9375V26.25ZM16.875 19.6875H4.85625C4.56285 19.6875 4.28148 19.5709 4.07401 19.3635C3.86655 19.156 3.75 18.8746 3.75 18.5812V17.9813C3.75 17.6879 3.86655 17.4065 4.07401 17.199C4.28148 16.9916 4.56285 16.875 4.85625 16.875H25.1437C25.4371 16.875 25.7185 16.9916 25.926 17.199C26.1334 17.4065 26.25 17.6879 26.25 17.9813V18.5812C26.25 18.8746 26.1334 19.156 25.926 19.3635C25.7185 19.5709 25.4371 19.6875 25.1437 19.6875H16.875Z" fill="#758CA3"/>
<path d="M8.65312 10.9313L14.0625 7.67813V11.1188C14.0621 11.2945 14.1112 11.4667 14.204 11.6159C14.2968 11.7651 14.4297 11.8852 14.5875 11.9625C14.7161 12.0248 14.8571 12.0568 15 12.0563C15.2028 12.0563 15.4002 11.9905 15.5625 11.8688L21.4219 7.42501C21.5609 7.31853 21.6673 7.17524 21.7291 7.01138C21.7908 6.84752 21.8054 6.66964 21.7713 6.49789C21.7371 6.32615 21.6556 6.1674 21.5358 6.03963C21.4161 5.91187 21.2629 5.8202 21.0937 5.77501L19.6875 5.40938C19.4845 5.35718 19.2699 5.3745 19.0779 5.45857C18.886 5.54263 18.7277 5.6886 18.6284 5.87316C18.5291 6.05772 18.4945 6.27022 18.5301 6.47675C18.5658 6.68327 18.6696 6.87189 18.825 7.01251L15.9375 9.23438V6.01876C15.9372 5.85263 15.8928 5.68957 15.8088 5.54626C15.7248 5.40295 15.6042 5.28453 15.4594 5.20313C15.3168 5.12085 15.1552 5.07753 14.9906 5.07753C14.8261 5.07753 14.6644 5.12085 14.5219 5.20313L7.68749 9.31876C7.49979 9.45526 7.3694 9.65654 7.32154 9.88364C7.27368 10.1107 7.31177 10.3475 7.42842 10.5482C7.54507 10.7488 7.732 10.899 7.95304 10.9698C8.17407 11.0406 8.4135 11.0268 8.62499 10.9313H8.65312Z" fill="#758CA3"/>
</svg>
