<svg width="25" height="25" viewBox="0 0 25 25" fill="none" xmlns="http://www.w3.org/2000/svg">
<g clip-path="url(#clip0_16_25)">
<path d="M23.2887 20.4352C20.632 19.2354 20.5309 14.0855 20.5289 13.9556V10.5006C20.5289 7.17534 18.497 4.31598 15.6095 3.09849C15.6033 1.38889 14.2109 0 12.5001 0C10.7891 0 9.39678 1.38897 9.39053 3.09841C6.50319 4.3159 4.4712 7.17526 4.4712 10.5005V13.9555C4.46932 14.0854 4.36818 19.2354 1.71135 20.4352C1.40869 20.5719 1.24235 20.9013 1.31233 21.226C1.38222 21.5507 1.66936 21.7826 2.00151 21.7826H8.73681C8.87488 22.5422 9.23403 23.2488 9.78334 23.8212C10.5129 24.5813 11.4777 24.9999 12.4999 24.9999C13.5222 24.9999 14.487 24.5813 15.2165 23.8212C15.7659 23.2488 16.1251 22.5421 16.263 21.7826H22.9984C23.3305 21.7826 23.6176 21.5508 23.6876 21.226C23.7576 20.9013 23.5914 20.5719 23.2887 20.4352ZM19.789 17.9681C20.0683 18.8149 20.4638 19.6652 21.0245 20.3728H3.97549C4.53619 19.6653 4.93166 18.815 5.21095 17.9681H19.789ZM12.5001 1.40993C13.274 1.40993 13.9283 1.92995 14.133 2.63877C13.6056 2.52938 13.0594 2.4717 12.5001 2.4717C11.9407 2.4717 11.3945 2.52933 10.8671 2.63877C11.0719 1.92999 11.7262 1.40993 12.5001 1.40993ZM5.88113 13.9598V10.5005C5.88113 6.85083 8.85033 3.88162 12.5001 3.88162C16.1498 3.88162 19.119 6.85083 19.119 10.5005V13.9656C19.1199 14.0716 19.1364 15.1861 19.4173 16.5581H5.58264C5.86368 15.1848 5.88027 14.0684 5.88113 13.9598ZM12.5001 23.5901C11.424 23.5901 10.4849 22.8143 10.1835 21.7827H14.8165C14.5151 22.8143 13.5762 23.5901 12.5001 23.5901Z" fill="#919191"/>
<path d="M12.5001 4.87073C9.46697 4.87073 6.99936 7.33826 6.99936 10.3713C6.99936 10.7606 7.31501 11.0763 7.70434 11.0763C8.09368 11.0763 8.40933 10.7606 8.40933 10.3713C8.40933 8.11571 10.2444 6.28066 12.5001 6.28066C12.8894 6.28066 13.2051 5.96501 13.2051 5.57567C13.205 5.18629 12.8894 4.87073 12.5001 4.87073Z" fill="#919191"/>
</g>
<defs>
<clipPath id="clip0_16_25">
<rect width="25" height="25" fill="white"/>
</clipPath>
</defs>
</svg>
