<svg width="20" height="20" viewBox="0 0 20 20" fill="none" xmlns="http://www.w3.org/2000/svg">
<g clip-path="url(#clip0_16_73)">
<path d="M5.86169 9.03009H14.1586V9.96759H5.86169V9.03009ZM5.86169 13.1551H10.9398V14.0926H5.86169V13.1551Z" fill="black" stroke="black" stroke-width="0.00064"/>
<path d="M15.9867 19.1707H4.01794C3.76794 19.1707 3.53357 19.1238 3.29919 19.0301C3.08044 18.9363 2.87732 18.8113 2.72107 18.6395C2.54919 18.4676 2.42419 18.2801 2.33044 18.0613C2.23669 17.827 2.18982 17.5926 2.18982 17.3426V4.88947C2.18982 4.63947 2.23669 4.40509 2.33044 4.17072C2.42419 3.95197 2.54919 3.74884 2.72107 3.59259C2.89294 3.42072 3.08044 3.29572 3.29919 3.20197C3.53357 3.10822 3.76794 3.06134 4.01794 3.06134H5.83044V3.98322H4.01794C3.51794 3.98322 3.09607 4.38947 3.09607 4.90509V17.3582C3.09607 17.8582 3.50232 18.2801 4.01794 18.2801H15.9711C16.4711 18.2801 16.8929 17.8738 16.8929 17.3582V4.88947C16.8929 4.38947 16.4867 3.96759 15.9711 3.96759H14.1742V3.04572H15.9867C16.2367 3.04572 16.4711 3.09259 16.7054 3.18634C16.9242 3.28009 17.1273 3.40509 17.2836 3.57697C17.4554 3.74884 17.5804 3.93634 17.6742 4.15509C17.7679 4.38947 17.8148 4.62384 17.8148 4.87384V17.327C17.8148 17.577 17.7679 17.8113 17.6742 18.0457C17.5804 18.2645 17.4554 18.4676 17.2836 18.6238C17.1117 18.7957 16.9242 18.9207 16.7054 19.0145C16.4711 19.1238 16.2367 19.1707 15.9867 19.1707Z" fill="black" stroke="black" stroke-width="0.00064"/>
<path d="M14.5961 5.81134H5.40857V2.81134C5.40857 2.17072 5.92419 1.65509 6.56482 1.65509H7.75232C8.17419 0.81134 9.04919 0.264465 10.0179 0.264465C10.9867 0.264465 11.8617 0.81134 12.2836 1.65509H13.4711C14.1117 1.65509 14.6273 2.17072 14.6273 2.81134L14.5961 5.81134ZM6.33044 4.88947H13.6898V2.81134C13.6898 2.68634 13.5804 2.57697 13.4554 2.57697H11.6273L11.5179 2.26447C11.2992 1.62384 10.6898 1.18634 10.0023 1.18634C9.31482 1.18634 8.70544 1.62384 8.48669 2.26447L8.37732 2.57697H6.54919C6.42419 2.57697 6.31482 2.68634 6.31482 2.81134V4.88947H6.33044Z" fill="black" stroke="black" stroke-width="0.00064"/>
</g>
<defs>
<clipPath id="clip0_16_73">
<rect width="20" height="20" fill="white" transform="translate(0.00231934 -0.00115967)"/>
</clipPath>
</defs>
</svg>
