<svg width="30" height="30" viewBox="0 0 30 30" fill="none" xmlns="http://www.w3.org/2000/svg">
<path d="M18.4038 22.7885H21.8654C21.9808 22.7952 22.0963 22.7774 22.2043 22.7363C22.3124 22.6951 22.4105 22.6316 22.4922 22.5499C22.5739 22.4682 22.6375 22.3701 22.6786 22.262C22.7197 22.154 22.7375 22.0385 22.7308 21.9231V8.07692C22.7375 7.96153 22.7197 7.84602 22.6786 7.73798C22.6375 7.62995 22.5739 7.53184 22.4922 7.45011C22.4105 7.36837 22.3124 7.30486 22.2043 7.26374C22.0963 7.22262 21.9808 7.20483 21.8654 7.21154H18.4038C18.2884 7.20483 18.1729 7.22262 18.0649 7.26374C17.9569 7.30486 17.8588 7.36837 17.777 7.45011C17.6953 7.53184 17.6318 7.62995 17.5907 7.73798C17.5495 7.84602 17.5318 7.96153 17.5385 8.07692V21.9231C17.5318 22.0385 17.5495 22.154 17.5907 22.262C17.6318 22.3701 17.6953 22.4682 17.777 22.5499C17.8588 22.6316 17.9569 22.6951 18.0649 22.7363C18.1729 22.7774 18.2884 22.7952 18.4038 22.7885Z" fill="#758CA3" stroke="#758CA3" stroke-width="0.00064"/>
<path d="M26.1923 22.7885H27.9231C28.0385 22.7952 28.154 22.7774 28.262 22.7363C28.3701 22.6951 28.4682 22.6316 28.5499 22.5499C28.6316 22.4682 28.6951 22.3701 28.7363 22.262C28.7774 22.154 28.7952 22.0385 28.7885 21.9231V8.07692C28.7952 7.96153 28.7774 7.84602 28.7363 7.73798C28.6951 7.62995 28.6316 7.53184 28.5499 7.45011C28.4682 7.36837 28.3701 7.30486 28.262 7.26374C28.154 7.22262 28.0385 7.20483 27.9231 7.21154H26.1923C26.0769 7.20483 25.9614 7.22262 25.8534 7.26374C25.7453 7.30486 25.6472 7.36837 25.5655 7.45011C25.4838 7.53184 25.4202 7.62995 25.3791 7.73798C25.338 7.84602 25.3202 7.96153 25.3269 8.07692V21.9231C25.3202 22.0385 25.338 22.154 25.3791 22.262C25.4202 22.3701 25.4838 22.4682 25.5655 22.5499C25.6472 22.6316 25.7453 22.6951 25.8534 22.7363C25.9614 22.7774 26.0769 22.7952 26.1923 22.7885Z" fill="#758CA3" stroke="#758CA3" stroke-width="0.00064"/>
<path d="M14.4231 22.7885C14.5396 22.8002 14.6573 22.7858 14.7676 22.7465C14.8779 22.7071 14.9781 22.6437 15.0609 22.5609C15.1437 22.4781 15.2071 22.3779 15.2465 22.2676C15.2858 22.1573 15.3002 22.0396 15.2885 21.9231V8.07692C15.2952 7.96153 15.2774 7.84602 15.2363 7.73798C15.1951 7.62995 15.1316 7.53184 15.0499 7.45011C14.9682 7.36837 14.8701 7.30486 14.762 7.26374C14.654 7.22262 14.5385 7.20483 14.4231 7.21154C14.3077 7.20483 14.1922 7.22262 14.0841 7.26374C13.9761 7.30486 13.878 7.36837 13.7963 7.45011C13.7145 7.53184 13.651 7.62995 13.6099 7.73798C13.5688 7.84602 13.551 7.96153 13.5577 8.07692V21.9231C13.546 22.0396 13.5603 22.1573 13.5997 22.2676C13.639 22.3779 13.7024 22.4781 13.7852 22.5609C13.8681 22.6437 13.9682 22.7071 14.0786 22.7465C14.1889 22.7858 14.3065 22.8002 14.4231 22.7885Z" fill="#758CA3" stroke="#758CA3" stroke-width="0.00064"/>
<path d="M9.57692 22.7885H10.3846C10.5 22.7952 10.6155 22.7774 10.7236 22.7363C10.8316 22.6951 10.9297 22.6316 11.0114 22.5499C11.0932 22.4682 11.1567 22.3701 11.1978 22.262C11.2389 22.154 11.2567 22.0385 11.25 21.9231V8.07692C11.2567 7.96153 11.2389 7.84602 11.1978 7.73798C11.1567 7.62995 11.0932 7.53184 11.0114 7.45011C10.9297 7.36837 10.8316 7.30486 10.7236 7.26374C10.6155 7.22262 10.5 7.20483 10.3846 7.21154H9.51923C9.40383 7.20483 9.28832 7.22262 9.18029 7.26374C9.07226 7.30486 8.97415 7.36837 8.89241 7.45011C8.81068 7.53184 8.74716 7.62995 8.70605 7.73798C8.66493 7.84602 8.64714 7.96153 8.65385 8.07692V21.9231C8.64905 22.043 8.67012 22.1626 8.71563 22.2736C8.76114 22.3847 8.83001 22.4847 8.91757 22.5668C9.00514 22.6489 9.10934 22.7111 9.22311 22.7494C9.33688 22.7877 9.45755 22.801 9.57692 22.7885Z" fill="#758CA3" stroke="#758CA3" stroke-width="0.00064"/>
<path d="M2.07692 22.7885H5.53846C5.65386 22.7952 5.76937 22.7774 5.8774 22.7363C5.98544 22.6951 6.08354 22.6316 6.16528 22.5499C6.24702 22.4682 6.31053 22.3701 6.35165 22.262C6.39277 22.154 6.41055 22.0385 6.40385 21.9231V8.07692C6.41055 7.96153 6.39277 7.84602 6.35165 7.73798C6.31053 7.62995 6.24702 7.53184 6.16528 7.45011C6.08354 7.36837 5.98544 7.30486 5.8774 7.26374C5.76937 7.22262 5.65386 7.20483 5.53846 7.21154H2.07692C1.96153 7.20483 1.84602 7.22262 1.73798 7.26374C1.62995 7.30486 1.53184 7.36837 1.45011 7.45011C1.36837 7.53184 1.30486 7.62995 1.26374 7.73798C1.22262 7.84602 1.20483 7.96153 1.21154 8.07692V21.9231C1.20918 22.0374 1.22996 22.151 1.27261 22.257C1.31527 22.3631 1.37892 22.4594 1.45976 22.5402C1.54059 22.6211 1.63693 22.6847 1.74299 22.7274C1.84905 22.77 1.96263 22.7908 2.07692 22.7885Z" fill="#758CA3" stroke="#758CA3" stroke-width="0.00064"/>
</svg>
