<svg width="30" height="30" viewBox="0 0 30 30" fill="none" xmlns="http://www.w3.org/2000/svg">
<path d="M27.4266 27.4219H25.2891V13.2141H26.5969C26.6852 13.2146 26.7718 13.1901 26.8468 13.1436C26.9217 13.097 26.9821 13.0302 27.0208 12.9508C27.0594 12.8715 27.0749 12.7828 27.0655 12.6951C27.056 12.6073 27.0219 12.524 26.9672 12.4547L24.0094 8.66724C23.9633 8.61427 23.9064 8.5718 23.8425 8.5427C23.7787 8.51359 23.7093 8.49853 23.6391 8.49853C23.5689 8.49853 23.4995 8.51359 23.4356 8.5427C23.3717 8.5718 23.3148 8.61427 23.2688 8.66724L20.311 12.4547C20.2562 12.524 20.2222 12.6073 20.2127 12.6951C20.2032 12.7828 20.2187 12.8715 20.2574 12.9508C20.2961 13.0302 20.3564 13.097 20.4314 13.1436C20.5064 13.1901 20.593 13.2146 20.6813 13.2141H21.9844V27.4219H17.2453V17.475H18.5485C18.6369 17.4752 18.7235 17.4501 18.7983 17.4028C18.873 17.3555 18.9327 17.2879 18.9703 17.2079C19.0097 17.1295 19.0257 17.0415 19.0166 16.9542C19.0074 16.867 18.9735 16.7842 18.9188 16.7157L15.961 12.9282C15.9149 12.8752 15.858 12.8327 15.7941 12.8036C15.7302 12.7745 15.6608 12.7595 15.5906 12.7595C15.5204 12.7595 15.4511 12.7745 15.3872 12.8036C15.3233 12.8327 15.2664 12.8752 15.2203 12.9282L12.2625 16.7157C12.2089 16.7852 12.1758 16.8684 12.1669 16.9558C12.158 17.0431 12.1737 17.1313 12.2122 17.2102C12.2507 17.2891 12.3105 17.3557 12.3848 17.4025C12.4591 17.4493 12.545 17.4744 12.6328 17.475H13.9406V27.4219H9.67033V21.7313H10.9781C11.0661 21.7318 11.1523 21.7074 11.227 21.661C11.3016 21.6145 11.3616 21.5479 11.4 21.4688C11.4371 21.3898 11.4519 21.3023 11.4428 21.2155C11.4337 21.1288 11.4011 21.0462 11.3485 20.9766L8.38596 17.1891C8.341 17.1352 8.28473 17.0918 8.22114 17.062C8.15756 17.0322 8.0882 17.0168 8.01799 17.0168C7.94777 17.0168 7.87842 17.0322 7.81483 17.062C7.75124 17.0918 7.69498 17.1352 7.65002 17.1891L4.69221 20.9766C4.63748 21.0451 4.60353 21.1279 4.59439 21.2152C4.58526 21.3024 4.60131 21.3904 4.64064 21.4688C4.67754 21.5481 4.73653 21.615 4.81053 21.6616C4.88454 21.7081 4.9704 21.7323 5.05783 21.7313H6.36564V27.4219H3.04221V3.27661C3.04221 3.15229 2.99282 3.03306 2.90491 2.94516C2.817 2.85725 2.69778 2.80786 2.57346 2.80786C2.44914 2.80786 2.32991 2.85725 2.242 2.94516C2.15409 3.03306 2.10471 3.15229 2.10471 3.27661V27.8907C2.10471 28.015 2.15409 28.1342 2.242 28.2221C2.32991 28.31 2.44914 28.3594 2.57346 28.3594H27.4266C27.5509 28.3594 27.6701 28.31 27.758 28.2221C27.8459 28.1342 27.8953 28.015 27.8953 27.8907C27.8953 27.7664 27.8459 27.6471 27.758 27.5592C27.6701 27.4713 27.5509 27.4219 27.4266 27.4219ZM8.73283 21.2626V27.4219H7.30314V21.2626C7.30314 21.1382 7.25376 21.019 7.16585 20.9311C7.07794 20.8432 6.95871 20.7938 6.83439 20.7938H6.02346L8.02033 18.2391L10.0172 20.7938H9.20158C9.07726 20.7938 8.95803 20.8432 8.87012 20.9311C8.78222 21.019 8.73283 21.1382 8.73283 21.2626ZM16.3078 17.0063V27.4219H14.8781V17.0063C14.8781 16.882 14.8288 16.7628 14.7408 16.6748C14.6529 16.5869 14.5337 16.5375 14.4094 16.5375H13.5938L15.5906 13.9782L17.5875 16.5375H16.7766C16.7149 16.5369 16.6536 16.5486 16.5965 16.572C16.5393 16.5953 16.4874 16.6298 16.4437 16.6734C16.4001 16.7171 16.3656 16.769 16.3422 16.8262C16.3189 16.8833 16.3072 16.9446 16.3078 17.0063ZM24.3516 12.7454V27.4219H22.9219V12.7454C22.9225 12.6836 22.9108 12.6224 22.8875 12.5652C22.8642 12.5081 22.8296 12.4562 22.786 12.4125C22.7423 12.3689 22.6904 12.3344 22.6333 12.311C22.5761 12.2877 22.5149 12.276 22.4531 12.2766H21.6422L23.6391 9.71724L25.636 12.2766H24.8203C24.696 12.2766 24.5768 12.326 24.4889 12.4139C24.401 12.5018 24.3516 12.621 24.3516 12.7454Z" fill="#758CA3"/>
<path d="M10.4063 11.6766C10.337 11.9152 10.2039 12.1303 10.0213 12.2988C9.83875 12.4673 9.61367 12.5828 9.37032 12.6329V12.9329C9.37032 13.0572 9.32094 13.1764 9.23303 13.2643C9.14512 13.3522 9.02589 13.4016 8.90157 13.4016C8.77725 13.4016 8.65803 13.3522 8.57012 13.2643C8.48221 13.1764 8.43282 13.0572 8.43282 12.9329V12.5532C8.19871 12.4595 7.97423 12.3433 7.76251 12.2063C7.68282 12.1547 7.60314 12.1079 7.52814 12.0657C7.41936 12.0054 7.33898 11.9043 7.3047 11.7848C7.27042 11.6652 7.28503 11.537 7.34532 11.4282C7.40562 11.3194 7.50666 11.239 7.62621 11.2047C7.74577 11.1705 7.87404 11.1851 7.98282 11.2454C8.07657 11.2969 8.16564 11.3532 8.25939 11.4094C8.48955 11.5904 8.7654 11.704 9.05626 11.7375C9.15283 11.7388 9.24744 11.7102 9.32715 11.6557C9.40686 11.6012 9.46778 11.5233 9.50157 11.4329C9.52032 11.3719 9.52501 11.2735 9.38439 11.1797L8.15157 10.3547C8.00915 10.2646 7.88746 10.1454 7.79454 10.0048C7.70162 9.86416 7.63957 9.70545 7.61251 9.53911C7.58772 9.3826 7.59664 9.2226 7.63868 9.06981C7.68071 8.91702 7.7549 8.77498 7.85626 8.65317C8.00786 8.46633 8.20704 8.32382 8.43282 8.24067V7.82349C8.43282 7.69917 8.48221 7.57994 8.57012 7.49203C8.65803 7.40412 8.77725 7.35474 8.90157 7.35474C9.02589 7.35474 9.14512 7.40412 9.23303 7.49203C9.32094 7.57994 9.37032 7.69917 9.37032 7.82349V8.18911C9.52776 8.22556 9.67713 8.29071 9.81095 8.3813L10.3078 8.70942C10.4116 8.77842 10.4838 8.88583 10.5084 9.00802C10.533 9.13021 10.5081 9.25718 10.4391 9.36099C10.3701 9.46479 10.2627 9.53694 10.1405 9.56155C10.0183 9.58617 9.89132 9.56123 9.78751 9.49224L9.29064 9.15942C9.18254 9.08961 9.05377 9.05898 8.92582 9.07263C8.79786 9.08628 8.67845 9.14338 8.58751 9.23442C8.56851 9.25608 8.55414 9.28138 8.54527 9.30879C8.5364 9.33619 8.53323 9.36512 8.53595 9.3938C8.55649 9.46975 8.60507 9.53508 8.67189 9.57661L9.90939 10.4016C10.1191 10.5317 10.2809 10.7263 10.3705 10.9562C10.4601 11.1862 10.4727 11.4389 10.4063 11.6766Z" fill="#758CA3"/>
<path d="M8.90158 5.90161C8.0162 5.90161 7.1507 6.16416 6.41454 6.65605C5.67837 7.14794 5.1046 7.84708 4.76578 8.66507C4.42696 9.48305 4.33831 10.3831 4.51104 11.2515C4.68377 12.1199 5.11012 12.9175 5.73618 13.5436C6.36223 14.1696 7.15988 14.596 8.02825 14.7687C8.89662 14.9414 9.7967 14.8528 10.6147 14.514C11.4327 14.1752 12.1318 13.6014 12.6237 12.8652C13.1156 12.1291 13.3781 11.2636 13.3781 10.3782C13.3774 9.19114 12.9055 8.05295 12.0662 7.21359C11.2268 6.37423 10.0886 5.90236 8.90158 5.90161ZM8.90158 13.9172C8.20162 13.9172 7.51738 13.7097 6.93538 13.3208C6.35339 12.9319 5.89978 12.3792 5.63192 11.7325C5.36405 11.0858 5.29397 10.3742 5.43052 9.68774C5.56708 9.00123 5.90414 8.37063 6.39909 7.87568C6.89403 7.38073 7.52464 7.04367 8.21115 6.90711C8.89766 6.77056 9.60924 6.84064 10.2559 7.10851C10.9026 7.37637 11.4553 7.82998 11.8442 8.41198C12.2331 8.99397 12.4406 9.67821 12.4406 10.3782C12.439 11.3163 12.0657 12.2155 11.4023 12.8789C10.7389 13.5422 9.83971 13.9156 8.90158 13.9172Z" fill="#758CA3"/>
<path d="M16.9941 7.80375C17.0714 7.84688 17.1502 7.8975 17.2313 7.94438C17.4421 8.08186 17.6658 8.1985 17.8992 8.29266V8.66766C17.8992 8.79198 17.9486 8.91121 18.0365 8.99911C18.1244 9.08702 18.2437 9.13641 18.368 9.13641C18.4923 9.13641 18.6115 9.08702 18.6994 8.99911C18.7874 8.91121 18.8367 8.79198 18.8367 8.66766V8.37047C19.0798 8.32029 19.3047 8.20517 19.4875 8.03737C19.6703 7.86957 19.8042 7.65535 19.875 7.4175C19.9403 7.17909 19.9268 6.92597 19.8365 6.69587C19.7462 6.46576 19.5839 6.27101 19.3739 6.14063L18.1378 5.31328C18.1044 5.29384 18.0752 5.26769 18.0523 5.23647C18.0294 5.20526 18.0132 5.16965 18.0047 5.13188C18.0013 5.10345 18.004 5.07463 18.0125 5.04732C18.0211 5.02 18.0354 4.99482 18.0544 4.97344C18.1453 4.88232 18.2647 4.82513 18.3926 4.81139C18.5206 4.79766 18.6494 4.82822 18.7575 4.89797L19.2511 5.22844C19.3022 5.26395 19.3599 5.28892 19.4208 5.30189C19.4817 5.31487 19.5445 5.31559 19.6057 5.30402C19.6668 5.29245 19.7251 5.26881 19.777 5.23448C19.8289 5.20016 19.8735 5.15584 19.9081 5.10411C19.9427 5.05238 19.9667 4.99427 19.9786 4.93318C19.9905 4.87208 19.9901 4.80923 19.9775 4.74828C19.9649 4.68733 19.9402 4.62951 19.905 4.57819C19.8698 4.52687 19.8247 4.48308 19.7724 4.44937L19.2788 4.12125C19.143 4.03278 18.9932 3.96796 18.8358 3.92953V3.5625C18.8358 3.43818 18.7864 3.31895 18.6985 3.23104C18.6106 3.14314 18.4914 3.09375 18.3671 3.09375C18.2427 3.09375 18.1235 3.14314 18.0356 3.23104C17.9477 3.31895 17.8983 3.43818 17.8983 3.5625V3.98438C17.6723 4.06607 17.4725 4.2071 17.3199 4.39266C17.2198 4.51528 17.1465 4.65751 17.1048 4.81019C17.063 4.96286 17.0538 5.12258 17.0775 5.27906C17.1055 5.44498 17.1679 5.6032 17.2607 5.74352C17.3536 5.88384 17.4748 6.00315 17.6166 6.09375L18.8517 6.92063C18.9924 7.01438 18.9863 7.10813 18.9694 7.17328C18.9351 7.26384 18.8738 7.34168 18.7938 7.39626C18.7139 7.45084 18.619 7.47952 18.5222 7.47844C18.2315 7.44413 17.9559 7.33062 17.7253 7.15031C17.6316 7.09172 17.5378 7.03453 17.4497 6.98437C17.3413 6.92592 17.2143 6.91246 17.0961 6.9469C16.9779 6.98133 16.878 7.0609 16.8179 7.1684C16.7579 7.27591 16.7426 7.40272 16.7753 7.52142C16.808 7.64013 16.8861 7.74121 16.9927 7.80281L16.9941 7.80375Z" fill="#758CA3"/>
<path d="M18.3656 1.64062C17.4805 1.64155 16.6154 1.90489 15.8799 2.39734C15.1443 2.88979 14.5713 3.58926 14.2332 4.40733C13.8951 5.22539 13.8071 6.12533 13.9804 6.99339C14.1536 7.86145 14.5803 8.65866 15.2066 9.28425C15.8328 9.90984 16.6305 10.3357 17.4987 10.5081C18.367 10.6804 19.2668 10.5915 20.0845 10.2525C20.9022 9.91358 21.6011 9.33981 22.0928 8.60374C22.5845 7.86768 22.8469 7.00237 22.8469 6.11719C22.8454 4.92957 22.3726 3.7911 21.5324 2.95177C20.6922 2.11244 19.5533 1.64087 18.3656 1.64062ZM18.3656 9.65625C17.6659 9.65532 16.9821 9.44697 16.4007 9.05753C15.8193 8.66809 15.3665 8.11504 15.0993 7.46828C14.8322 6.82152 14.7628 6.11008 14.8998 5.42388C15.0369 4.73768 15.3744 4.10752 15.8695 3.61304C16.3646 3.11856 16.9952 2.78196 17.6816 2.64579C18.368 2.50961 19.0793 2.57997 19.7258 2.84797C20.3722 3.11597 20.9246 3.56958 21.3133 4.15148C21.702 4.73337 21.9094 5.41743 21.9094 6.11719C21.9078 7.05612 21.5338 7.95607 20.8694 8.61956C20.205 9.28304 19.3046 9.65588 18.3656 9.65625Z" fill="#758CA3"/>
</svg>
