<svg width="30" height="30" viewBox="0 0 30 30" fill="none" xmlns="http://www.w3.org/2000/svg">
<g clip-path="url(#clip0_192_300)">
<path d="M29.0816 21.7347H28.1633V12.2449C28.1633 11.7377 27.7521 11.3265 27.2449 11.3265H22.0408V1.8367C22.0408 1.32952 21.6296 0.918335 21.1224 0.918335H8.87755C8.37037 0.918335 7.95918 1.32952 7.95918 1.8367V11.3265H2.7551C2.24792 11.3265 1.83673 11.7377 1.83673 12.2449V21.7347H0.918367C0.411184 21.7347 0 22.1458 0 22.653V28.1632C0 28.6704 0.411184 29.0816 0.918367 29.0816H4.59184C5.09902 29.0816 5.5102 28.6704 5.5102 28.1632V27.2449H12.2449V28.1632C12.2449 28.6704 12.6561 29.0816 13.1633 29.0816H16.8367C17.3439 29.0816 17.7551 28.6704 17.7551 28.1632V27.2449H24.4898V28.1632C24.4898 28.6704 24.901 29.0816 25.4082 29.0816H29.0816C29.5888 29.0816 30 28.6704 30 28.1632V22.653C30 22.1458 29.5888 21.7347 29.0816 21.7347ZM26.3265 13.1632V21.7347H15.9184V13.1632H26.3265ZM9.79592 2.75507H20.2041V11.3265H9.79592V2.75507ZM3.67347 13.1632H14.0816V21.7347H3.67347V13.1632ZM28.1633 27.2449H26.3265V26.3265C26.3265 25.8193 25.9153 25.4081 25.4082 25.4081H16.8367C16.3296 25.4081 15.9184 25.8193 15.9184 26.3265V27.2449H14.0816V26.3265C14.0816 25.8193 13.6704 25.4081 13.1633 25.4081H4.59184C4.08465 25.4081 3.67347 25.8193 3.67347 26.3265V27.2449H1.83673V23.5714H28.1633V27.2449Z" fill="#80A7EC" stroke="#80A7EC" stroke-width="0.00064"/>
</g>
<defs>
<clipPath id="clip0_192_300">
<rect width="30" height="30" fill="white"/>
</clipPath>
</defs>
</svg>
