<svg width="30" height="30" viewBox="0 0 30 30" fill="none" xmlns="http://www.w3.org/2000/svg">
<g clip-path="url(#clip0_21_221)">
<path d="M3.08671 3.41287C2.9063 3.23246 2.80276 2.98273 2.80276 2.72779C2.80276 2.46904 2.90384 2.22529 3.08624 2.04254C3.27005 1.85908 3.51374 1.75806 3.77249 1.75806H8.51155C8.77036 1.75806 9.01405 1.85908 9.19681 2.04154C9.37986 2.22494 9.48069 2.46863 9.48069 2.72779C9.48069 2.98314 9.37739 3.23287 9.19734 3.41293C9.01417 3.59603 8.77066 3.69693 8.51155 3.69693H3.77249C3.51345 3.69693 3.26993 3.59603 3.08671 3.41287ZM22.987 12.9383H16.8752V6.82713C19.833 7.6308 22.1832 9.98082 22.987 12.9383ZM10.4402 4.65593C10.7355 4.36068 10.9569 3.99892 11.0909 3.6067H17.1852V5.08965C16.8371 5.00164 16.4828 4.93097 16.1231 4.87859C15.8701 4.84156 15.6145 4.91656 15.4214 5.08349C15.2284 5.25043 15.1174 5.49306 15.1174 5.74824V13.8172C15.1174 14.3027 15.5109 14.6961 15.9963 14.6961H24.0659C24.321 14.6961 24.5637 14.5852 24.7307 14.3922C24.8976 14.1992 24.9724 13.943 24.9356 13.6904C24.6102 11.4584 23.5907 9.43097 21.9869 7.82732C21.0917 6.93207 20.0643 6.2191 18.943 5.70699V2.72779C18.943 2.24234 18.5495 1.84888 18.0641 1.84888H11.0938C10.9612 1.45812 10.7403 1.09959 10.4398 0.798592C9.92407 0.283787 9.23935 0.00025177 8.51155 0.00025177H3.77249C3.04476 0.00025177 2.36003 0.283787 1.84329 0.799588C1.32849 1.31527 1.04495 2.00006 1.04495 2.72779C1.04495 3.44556 1.33616 4.14834 1.84382 4.65588C2.35898 5.17103 3.04394 5.45474 3.77249 5.45474H8.51155C9.24023 5.45474 9.92513 5.17103 10.4402 4.65593Z" fill="#758CA3" stroke="#758CA3" stroke-width="0.00064" stroke-miterlimit="2" stroke-linejoin="round"/>
<path d="M26.9127 27.9589C26.7329 28.1391 26.4833 28.2424 26.228 28.2424H21.4884C21.2294 28.2424 20.9862 28.1418 20.8027 27.9579C20.62 27.7754 20.5193 27.5323 20.5193 27.2733C20.5193 27.0142 20.6201 26.7707 20.8032 26.5876C20.9863 26.4044 21.2297 26.3035 21.4884 26.3035H26.228C26.483 26.3035 26.7327 26.4071 26.9132 26.5876C27.0963 26.7707 27.1972 27.0142 27.1972 27.2733C27.1972 27.5323 27.0966 27.7754 26.9127 27.9589ZM6.4456 15.9612C6.4456 12.6574 8.67316 9.76394 11.77 8.85304V11.4145C11.019 11.7606 10.3531 12.2941 9.85353 12.9582C9.19757 13.8302 8.85087 14.8686 8.85087 15.9612C8.85087 18.7191 11.0943 20.9627 13.8519 20.9627C14.9446 20.9627 15.9831 20.6159 16.8553 19.9598C17.5191 19.4603 18.0527 18.7945 18.3989 18.0436H20.9606C20.0497 21.1402 17.156 23.3674 13.8519 23.3674C9.76804 23.3674 6.4456 20.045 6.4456 15.9612ZM28.1562 25.3446C27.6485 24.8369 26.9457 24.5457 26.228 24.5457H21.4884C20.7602 24.5457 20.0754 24.8294 19.5603 25.3446C19.2599 25.645 19.0388 26.0034 18.9061 26.3944H14.1033V25.1214C16.2271 25.0631 18.2667 24.2688 19.8715 22.8693C21.5231 21.429 22.6057 19.448 22.92 17.2915C22.9569 17.0389 22.8821 16.7828 22.7151 16.5898C22.5482 16.3968 22.3055 16.2858 22.0503 16.2858H17.7958C17.4093 16.2858 17.0681 16.5384 16.9553 16.908C16.5423 18.2604 15.2661 19.2049 13.8519 19.2049C12.0636 19.2049 10.6087 17.7498 10.6087 15.9612C10.6087 14.5467 11.5531 13.2708 12.9053 12.8585C13.2752 12.7457 13.5278 12.4044 13.5278 12.0178V7.76331C13.5278 7.50814 13.4169 7.2655 13.2238 7.09851C13.0308 6.93163 12.7752 6.85675 12.5221 6.89361C10.3656 7.20796 8.38459 8.29054 6.94412 9.94201C5.48912 11.61 4.68779 13.7477 4.68779 15.9612C4.68779 20.5012 8.00666 24.28 12.3455 25.0007V27.2733C12.3455 27.7587 12.739 28.1522 13.2244 28.1522H18.9061C19.0387 28.5432 19.2597 28.9012 19.5598 29.2008C20.0744 29.7163 20.7593 30.0002 21.4884 30.0002H26.228C26.9466 30.0002 27.6495 29.7088 28.1556 29.2019C28.6712 28.6873 28.955 28.0023 28.955 27.2733C28.955 26.5447 28.6713 25.8598 28.1562 25.3446Z" fill="#758CA3" stroke="#758CA3" stroke-width="0.00064" stroke-miterlimit="2" stroke-linejoin="round"/>
</g>
<defs>
<clipPath id="clip0_21_221">
<rect width="30" height="30" fill="white"/>
</clipPath>
</defs>
</svg>
