<svg width="30" height="30" viewBox="0 0 30 30" fill="none" xmlns="http://www.w3.org/2000/svg">
<g clip-path="url(#clip0_107_2)">
<path d="M6.96166 10.6039L5.92267 7.35954H11.8617L10.5881 10.6039H6.96166ZM2.41021 17.4344C2.41021 14.9274 3.79783 12.7622 5.88248 11.6831H11.8282C13.9129 12.7622 15.3407 14.9274 15.3407 17.4344C15.3407 20.987 12.4449 23.8829 8.8922 23.8829C5.29923 23.883 2.41021 20.9872 2.41021 17.4344ZM9.47545 18.9829C9.47545 19.3649 9.12693 19.5593 8.62408 19.5593C8.04095 19.5593 7.50459 19.3649 7.11587 19.1705L6.84775 20.2095C7.18959 20.4039 7.77283 20.558 8.38947 20.5983V21.4496H9.27435V20.5245C10.32 20.3703 10.8966 19.6731 10.8966 18.8621C10.8966 18.051 10.4676 17.555 9.38837 17.1661C8.61752 16.898 8.30919 16.7036 8.30919 16.3953C8.30919 16.1607 8.50361 15.8925 9.08005 15.8925C9.73701 15.8925 10.1592 16.087 10.3938 16.2009L10.662 15.1954C10.3536 15.0412 9.96482 14.9273 9.34818 14.8871V14.076H8.4633V14.9206C7.49802 15.115 6.92158 15.7316 6.92158 16.5428C6.92158 17.4344 7.57853 17.8969 8.5438 18.2052C9.20052 18.44 9.50896 18.6343 9.47545 18.9829ZM23.2744 10.9244C23.0686 10.7102 23.0754 10.3696 23.2896 10.1637C23.5038 9.95782 23.8444 9.96473 24.0503 10.179C24.2562 10.3932 24.2493 10.7337 24.0351 10.9396C23.8208 11.1455 23.4802 11.1386 23.2744 10.9244ZM26.8668 9.91844C27.081 9.71266 27.0879 9.37211 26.882 9.15778C26.6761 8.94344 26.3357 8.93665 26.1213 9.14254C25.9071 9.34833 25.9002 9.68887 26.1061 9.90321C26.312 10.1175 26.6524 10.1243 26.8668 9.91844ZM20.1426 6.88774C20.3568 6.68196 20.3637 6.34141 20.1578 6.12708C19.952 5.91286 19.6115 5.90594 19.3971 6.11184C19.1828 6.31774 19.176 6.65817 19.3819 6.8725C19.5878 7.08684 19.9283 7.09364 20.1426 6.88774ZM28.0188 7.27833C28.2331 7.07254 28.24 6.732 28.0341 6.51766C27.8282 6.30333 27.4877 6.29653 27.2734 6.50243C27.0591 6.70833 27.0523 7.04875 27.2582 7.26309C27.4641 7.47731 27.8046 7.48411 28.0188 7.27833ZM23.9384 3.117C24.1526 2.91122 24.1595 2.57067 23.9536 2.35633C23.7478 2.14211 23.4073 2.1352 23.1929 2.3411C22.9786 2.547 22.9718 2.88743 23.1777 3.10176C23.3836 3.31598 23.724 3.32278 23.9384 3.117ZM26.9364 4.33973C27.1506 4.13395 27.1575 3.7934 26.9516 3.57907C26.7458 3.36485 26.4053 3.35793 26.191 3.56383C25.9766 3.76973 25.9698 4.11016 26.1757 4.3245C26.3816 4.53872 26.7222 4.54551 26.9364 4.33973ZM21.3792 4.24938C21.5935 4.0436 21.6004 3.70305 21.3945 3.48872C21.1887 3.2745 20.8481 3.26758 20.6338 3.47348C20.4195 3.67938 20.4127 4.01981 20.6186 4.23415C20.8245 4.44848 21.1649 4.45516 21.3792 4.24938ZM22.2866 7.48036L20.3685 9.32301L20.1833 10.1225L20.9896 9.96954L22.9077 8.12688C23.4511 8.43368 24.1712 8.3636 24.6669 7.88735C25.2704 7.30762 25.2891 6.37797 24.7094 5.77446C24.1296 5.17094 23.2 5.15231 22.5965 5.73204C22.1008 6.2084 21.9812 6.90356 22.2866 7.48036ZM29.7619 6.64692C29.7619 9.18661 28.2149 11.3752 26.0156 12.3208V14.1797H24.2306V24.5833C24.2306 26.5857 22.6167 28.1995 20.6144 28.1995H17.5534V29.5097H0.23439V25.4297H17.5781V27.0099L20.7041 27.004C22.049 27.004 23.1249 25.9281 23.1249 24.5833V14.1797H21.3281V12.3265C19.1217 11.3842 17.5684 9.19176 17.5684 6.64692C17.5684 3.23993 20.318 0.490356 23.725 0.490356C27.1021 0.490356 29.8815 3.23981 29.7619 6.64692ZM28.3297 4.23075C26.9967 1.69012 23.8494 0.709028 21.3088 2.04204C18.7682 3.37504 17.7871 6.52235 19.1201 9.06297C20.4531 11.6036 23.6004 12.5847 26.141 11.2517C28.6817 9.91868 29.6627 6.77137 28.3297 4.23075Z" fill="#758CA3"/>
</g>
<defs>
<clipPath id="clip0_107_2">
<rect width="30" height="30" fill="white"/>
</clipPath>
</defs>
</svg>
