<svg width="20" height="20" viewBox="0 0 20 20" fill="none" xmlns="http://www.w3.org/2000/svg">
<g clip-path="url(#clip0_16_62)">
<path d="M3.0316 17.4988H5.09336C5.38695 17.4988 5.62496 17.2608 5.62496 16.9672V12.3072C5.62496 12.0136 5.38691 11.7756 5.09336 11.7756H3.0316C2.73801 11.7756 2.5 12.0137 2.5 12.3072V16.9672C2.5 17.2608 2.73805 17.4988 3.0316 17.4988Z" fill="black" stroke="black" stroke-width="0.00064"/>
<path d="M7.7191 17.4988H9.78086C10.0745 17.4988 10.3125 17.2608 10.3125 16.9672V9.18221C10.3125 8.88861 10.0744 8.6506 9.78086 8.6506H7.7191C7.42551 8.6506 7.1875 8.88865 7.1875 9.18221V16.9672C7.1875 17.2608 7.42555 17.4988 7.7191 17.4988Z" fill="black" stroke="black" stroke-width="0.00064"/>
<path d="M12.4066 17.4988H14.4684C14.762 17.4988 15 17.2608 15 16.9672V5.43221C15 5.13861 14.7619 4.9006 14.4684 4.9006H12.4066C12.113 4.9006 11.875 5.13865 11.875 5.43221V16.9672C11.875 17.2608 12.113 17.4988 12.4066 17.4988Z" fill="black" stroke="black" stroke-width="0.00064"/>
<path d="M17.0941 17.4988H19.1559C19.4495 17.4988 19.6875 17.2608 19.6875 16.9672V1.68221C19.6875 1.38861 19.4494 1.1506 19.1559 1.1506H17.0941C16.8005 1.1506 16.5625 1.38865 16.5625 1.68221V16.9672C16.5625 17.2608 16.8005 17.4988 17.0941 17.4988Z" fill="black" stroke="black" stroke-width="0.00064"/>
<path d="M19.4684 18.827H1.7816C1.48805 18.827 1.25 18.5889 1.25 18.2954V0.530442C1.25 0.236887 1.01195 -0.00115967 0.718398 -0.00115967H0.531641C0.238047 -0.00115967 0 0.236887 0 0.530442V19.4672C0 19.7608 0.238047 19.9988 0.531602 19.9988H19.4684C19.762 19.9988 20 19.7608 20 19.4672V19.3586C20 19.065 19.762 18.827 19.4684 18.827Z" fill="black" stroke="black" stroke-width="0.00064"/>
</g>
<defs>
<clipPath id="clip0_16_62">
<rect width="20" height="20" fill="white" transform="translate(0 -0.00115967)"/>
</clipPath>
</defs>
</svg>
