<svg width="25" height="25" viewBox="0 0 25 25" fill="none" xmlns="http://www.w3.org/2000/svg">
<g clip-path="url(#clip0_16_31)">
<path d="M-1.52588e-05 10.4039C-1.52588e-05 16.142 4.66829 20.8052 10.4013 20.8052C13.0426 20.8052 15.4586 19.8121 17.2963 18.1844L23.925 24.8132C24.0479 24.936 24.2066 24.9974 24.3704 24.9974C24.5342 24.9974 24.6929 24.936 24.8157 24.8132C25.0614 24.5675 25.0614 24.1733 24.8157 23.9276L18.1818 17.2988C19.8096 15.4612 20.8026 13.0503 20.8026 10.4039C20.8026 4.66575 16.1343 0.00256348 10.4013 0.00256348C4.66829 0.00256348 -1.52588e-05 4.66575 -1.52588e-05 10.4039ZM19.5485 10.4039C19.5485 15.4458 15.4433 19.5511 10.4013 19.5511C5.35932 19.5511 1.25408 15.4458 1.25408 10.4039C1.25408 5.3619 5.35932 1.25666 10.4013 1.25666C15.4433 1.25666 19.5485 5.35678 19.5485 10.4039Z" fill="#919191"/>
</g>
<defs>
<clipPath id="clip0_16_31">
<rect width="25" height="25" fill="white"/>
</clipPath>
</defs>
</svg>
