<svg width="20" height="20" viewBox="0 0 20 20" fill="none" xmlns="http://www.w3.org/2000/svg">
<g clip-path="url(#clip0_16_104)">
<path d="M10.0023 12.5C11.383 12.5 12.5023 11.3807 12.5023 10C12.5023 8.61929 11.383 7.5 10.0023 7.5C8.62161 7.5 7.50232 8.61929 7.50232 10C7.50232 11.3807 8.62161 12.5 10.0023 12.5Z" stroke="#1C274C" stroke-width="2.4"/>
<path d="M3.05331 8.866C3.44711 9.11342 3.70048 9.53492 3.70048 9.99992C3.70047 10.465 3.4471 10.8865 3.05331 11.1339C2.78535 11.3023 2.6127 11.4368 2.48986 11.5969C2.22077 11.9477 2.10201 12.3908 2.15971 12.8291C2.20298 13.1578 2.39712 13.494 2.78541 14.1666C3.1737 14.8391 3.36784 15.1753 3.63085 15.3772C3.98153 15.6463 4.42475 15.765 4.863 15.7073C5.06302 15.681 5.26586 15.5988 5.5456 15.4509C5.95683 15.2336 6.44861 15.2249 6.85142 15.4575C7.25419 15.6901 7.49252 16.1203 7.5099 16.585C7.52173 16.9013 7.55195 17.1181 7.62916 17.3045C7.79832 17.7128 8.12278 18.0373 8.53113 18.2065C8.83746 18.3333 9.22571 18.3333 10.0023 18.3333C10.7789 18.3333 11.1671 18.3333 11.4735 18.2065C11.8818 18.0373 12.2063 17.7128 12.3755 17.3045C12.4526 17.1181 12.4829 16.9013 12.4947 16.5851C12.512 16.1203 12.7504 15.6901 13.1532 15.4575C13.556 15.225 14.0477 15.2337 14.4589 15.451C14.7387 15.5988 14.9415 15.6811 15.1415 15.7074C15.5798 15.7652 16.023 15.6463 16.3737 15.3773C16.6367 15.1755 16.8309 14.8392 17.2192 14.1667C17.392 13.8673 17.5265 13.6345 17.6261 13.4393M16.9512 11.134C16.5575 10.8866 16.3041 10.4651 16.304 10.0001C16.304 9.535 16.5575 9.11342 16.9512 8.866C17.2192 8.69767 17.3918 8.56309 17.5146 8.403C17.7837 8.05232 17.9025 7.6091 17.8448 7.17085C17.8015 6.84217 17.6074 6.5059 17.219 5.83338C16.8308 5.16085 16.6366 4.82459 16.3736 4.62277C16.023 4.35368 15.5797 4.23492 15.1415 4.29261C14.9415 4.31895 14.7386 4.40117 14.4589 4.54903C14.0476 4.76637 13.5559 4.77504 13.1531 4.54247C12.7504 4.30992 12.512 3.87975 12.4947 3.41503C12.4829 3.09877 12.4526 2.88196 12.3755 2.69553C12.2063 2.28715 11.8818 1.9627 11.4735 1.79354C11.1671 1.66667 10.7789 1.66667 10.0023 1.66667C9.22571 1.66667 8.83746 1.66667 8.53113 1.79354C8.12278 1.9627 7.79832 2.28715 7.62916 2.69553C7.55195 2.88195 7.52173 3.09874 7.5099 3.41495C7.49251 3.87972 7.25417 4.30993 6.85139 4.54247C6.4486 4.77502 5.95686 4.76633 5.54567 4.549C5.2659 4.40114 5.06305 4.31891 4.863 4.29257C4.42475 4.23488 3.98154 4.35364 3.63085 4.62273C3.36785 4.82455 3.17371 5.16081 2.78541 5.83334C2.61256 6.13275 2.47817 6.3655 2.37845 6.56061" stroke="#1C274C" stroke-width="2.4" stroke-linecap="round"/>
</g>
<defs>
<clipPath id="clip0_16_104">
<rect width="20" height="20" fill="white" transform="translate(0.00231934 3.8147e-06)"/>
</clipPath>
</defs>
</svg>
